<?xml version="1.0" encoding="UTF-8" standalone="no"?>
<!DOCTYPE svg PUBLIC "-//W3C//DTD SVG 1.1//EN" "http://www.w3.org/Graphics/SVG/1.1/DTD/svg11.dtd">
<svg xmlns="http://www.w3.org/2000/svg" version="1.1" viewBox="0 0 1024 1024">
<g stroke-width="2.00" fill="none" stroke-linecap="butt">
<path stroke="#191a37" vector-effect="non-scaling-stroke" d="   M 623.46 454.39   Q 623.08 455.34 624.98 455.01   A 1.00 0.97 -33.5 0 1 625.68 455.14   C 628.08 456.63 625.94 459.57 626.29 461.75"/>
<path stroke="#191a37" vector-effect="non-scaling-stroke" d="   M 608.50 525.96   Q 612.29 526.91 614.74 531.04   Q 615.98 533.13 614.13 534.26   A 0.51 0.50 -37.5 0 0 614.02 535.04   Q 614.21 535.25 614.50 535.29"/>
<path stroke="#0c2d49" vector-effect="non-scaling-stroke" d="   M 531.38 649.79   Q 531.38 647.51 529.63 646.76   A 1.01 1.01 0.0 0 1 529.15 646.34   L 526.56 641.80   A 1.05 1.03 85.1 0 0 526.06 641.37   Q 523.56 640.36 521.28 641.31   C 518.55 642.45 516.34 641.33 513.56 641.61   C 507.67 642.21 502.78 640.72 497.27 643.15   C 493.68 644.73 490.91 645.05 487.45 645.76   A 1.01 1.00 83.2 0 0 486.65 646.78   Q 486.97 654.45 486.86 661.80   Q 486.80 665.72 483.58 666.28"/>
<path stroke="#6e1a3c" vector-effect="non-scaling-stroke" d="   M 654.25 513.29   Q 655.31 515.51 657.50 514.21"/>
<path stroke="#1a526d" vector-effect="non-scaling-stroke" d="   M 534.46 702.25   C 533.36 702.36 534.01 700.08 533.04 701.38   A 1.02 1.02 0.0 0 1 532.19 701.78   C 523.89 701.41 515.61 700.68 507.32 701.05   C 499.06 701.41 490.03 701.20 482.89 703.19   A 1.05 1.01 8.8 0 0 482.36 703.56   L 481.29 705.00"/>
</g>
<circle fill="#f57521" cx="571.21" cy="258.18" r="8.78"/>
<circle fill="#f6841f" cx="451.80" cy="259.26" r="9.47"/>
<circle fill="#f57521" cx="477.66" cy="268.02" r="8.89"/>
<circle fill="#f79420" cx="398.96" cy="267.81" r="8.11"/>
<circle fill="#ee6730" cx="545.99" cy="266.82" r="5.57"/>
<ellipse fill="#f6841f" cx="0.00" cy="0.00" transform="translate(424.79,270.27) rotate(54.6)" rx="8.91" ry="8.66"/>
<ellipse fill="#f46d26" cx="0.00" cy="0.00" transform="translate(516.65,269.78) rotate(60.4)" rx="7.09" ry="6.84"/>
<circle fill="#f57521" cx="589.81" cy="274.68" r="8.05"/>
<circle fill="#f48527" cx="633.61" cy="272.68" r="5.50"/>
<circle fill="#f15c2f" cx="497.54" cy="282.30" r="8.48"/>
<circle fill="#f57521" cx="620.22" cy="286.90" r="9.19"/>
<circle fill="#f46d26" cx="457.26" cy="287.13" r="8.90"/>
<circle fill="#e6513d" cx="542.49" cy="287.84" r="6.38"/>
<circle fill="#eb4933" cx="518.95" cy="291.03" r="8.06"/>
<circle fill="#f15c2f" cx="568.40" cy="292.82" r="9.05"/>
<circle fill="#f6841f" cx="404.55" cy="293.32" r="9.31"/>
<circle fill="#f46d26" cx="430.95" cy="292.63" r="8.36"/>
<circle fill="#f15c2f" cx="477.95" cy="296.98" r="7.63"/>
<circle fill="#f79420" cx="380.45" cy="300.23" r="9.28"/>
<circle fill="#f46d26" cx="646.70" cy="299.26" r="7.61"/>
<circle fill="#eb4933" cx="595.98" cy="301.21" r="7.35"/>
<circle fill="#e94137" cx="535.20" cy="304.73" r="7.95"/>
<circle fill="#e94137" cx="498.99" cy="307.56" r="9.51"/>
<circle fill="#f79420" cx="349.76" cy="309.08" r="7.54"/>
<circle fill="#f15c2f" cx="446.39" cy="313.67" r="8.97"/>
<circle fill="#f15c2f" cx="623.88" cy="313.86" r="8.89"/>
<circle fill="#f46d26" cx="419.82" cy="314.60" r="8.95"/>
<path fill="#081d38" d="   M 623.46 454.39   Q 623.08 455.34 624.98 455.01   A 1.00 0.97 -33.5 0 1 625.68 455.14   C 628.08 456.63 625.94 459.57 626.29 461.75   C 619.02 464.65 612.94 466.02 607.59 473.09   Q 593.71 491.43 580.05 509.93   A 1.00 1.00 0.0 0 0 580.67 511.51   L 598.36 514.79   Q 601.92 515.45 598.52 516.71   Q 584.93 521.75 570.77 524.98   A 0.98 0.94 -72.8 0 0 570.30 525.24   C 558.41 536.78 547.19 548.98 535.29 560.47   C 532.69 562.98 530.89 566.14 527.70 567.86   A 1.00 0.99 -15.7 0 0 527.17 568.80   Q 527.76 577.55 528.22 585.54   Q 528.44 589.31 530.90 587.19   Q 531.69 586.50 531.74 586.46   Q 569.95 555.99 608.50 525.96   Q 612.29 526.91 614.74 531.04   Q 615.98 533.13 614.13 534.26   A 0.51 0.50 -37.5 0 0 614.02 535.04   Q 614.21 535.25 614.50 535.29   Q 598.95 547.74 583.27 560.02   Q 582.84 560.36 583.03 560.74   A 0.41 0.40 68.8 0 0 583.50 560.95   Q 587.14 560.04 590.83 559.40   Q 613.74 555.43 636.62 551.22   C 643.10 550.03 648.72 546.62 654.61 543.85   C 660.57 541.04 666.76 539.17 672.97 537.14   C 674.16 536.75 675.92 536.97 674.12 538.50   Q 661.57 549.12 648.44 559.05   Q 647.03 560.12 648.68 560.78   L 661.77 565.99   Q 663.68 566.75 661.90 567.78   L 653.40 572.73   Q 651.51 573.83 648.54 572.74   L 619.85 562.19   A 0.99 0.96 -43.3 0 0 619.20 562.18   Q 595.31 569.72 570.78 576.70   C 566.31 577.98 563.62 580.16 560.64 583.40   Q 546.81 598.45 533.04 613.57   C 531.27 615.52 529.59 616.44 529.76 619.50   Q 530.61 634.60 531.38 649.79   Q 531.38 647.51 529.63 646.76   A 1.01 1.01 0.0 0 1 529.15 646.34   L 526.56 641.80   A 1.05 1.03 85.1 0 0 526.06 641.37   Q 523.56 640.36 521.28 641.31   C 518.55 642.45 516.34 641.33 513.56 641.61   C 507.67 642.21 502.78 640.72 497.27 643.15   C 493.68 644.73 490.91 645.05 487.45 645.76   A 1.01 1.00 83.2 0 0 486.65 646.78   Q 486.97 654.45 486.86 661.80   Q 486.80 665.72 483.58 666.28   Q 484.99 636.88 485.86 626.57   C 486.20 622.55 486.84 619.27 483.85 616.29   Q 466.41 598.91 449.37 581.89   Q 449.20 581.73 448.97 581.65   Q 429.18 575.22 409.77 569.25   C 403.45 567.31 393.65 567.45 388.75 567.75   Q 377.33 568.45 365.87 568.89   Q 363.11 569.00 365.16 567.15   Q 369.73 563.04 375.07 559.99   Q 377.10 558.83 374.86 558.16   Q 354.01 552.01 333.71 544.26   Q 331.08 543.26 333.85 542.73   Q 338.98 541.75 344.68 541.11   Q 349.84 540.52 354.76 542.09   Q 397.72 555.76 441.37 567.07   A 1.00 1.00 0.0 0 0 442.59 565.87   L 437.40 543.99   A 1.01 1.01 0.0 0 0 436.99 543.39   Q 405.09 521.77 373.91 500.30   Q 371.39 498.56 369.05 496.78   Q 366.91 495.15 369.60 494.99   Q 372.93 494.79 376.26 494.73   Q 378.65 494.68 383.76 497.94   Q 408.35 513.64 432.79 529.01   Q 434.48 530.07 433.99 528.14   L 422.90 483.86   A 1.04 1.01 15.9 0 0 422.61 483.36   Q 393.70 456.67 363.44 429.06   C 358.43 424.49 360.99 422.19 359.46 416.89   Q 358.62 414.00 361.02 415.82   C 365.43 419.15 369.44 423.08 373.26 426.58   C 401.01 452.03 425.47 474.85 454.36 505.27   Q 472.14 523.99 490.51 542.15   Q 491.70 543.32 491.87 541.66   L 493.77 523.61   A 1.00 0.96 29.7 0 0 493.55 522.87   Q 471.19 495.24 447.53 468.70   Q 447.43 468.58 447.31 468.51   Q 433.36 460.04 419.42 451.59   Q 413.12 447.78 407.15 443.45   Q 405.16 442.01 407.62 442.00   L 420.86 441.98   Q 421.11 441.98 421.32 442.09   L 435.96 449.59   Q 438.07 450.68 437.37 448.41   L 427.27 415.87   A 0.97 0.94 51.1 0 1 427.34 415.11   L 431.54 407.21   Q 432.61 405.20 433.36 407.34   Q 441.32 429.84 448.89 451.43   C 450.17 455.08 452.51 457.26 454.94 460.08   Q 474.45 482.72 494.16 505.21   Q 495.65 506.91 495.91 504.67   L 498.95 478.19   A 0.98 0.97 29.8 0 0 498.75 477.47   Q 476.20 448.13 452.32 419.18   C 446.35 411.95 441.76 406.92 434.07 401.18   Q 419.92 390.61 405.41 380.55   Q 403.90 379.51 402.84 378.48   A 1.00 1.00 0.0 0 1 403.22 376.81   C 407.75 375.34 411.23 375.91 415.61 378.29   Q 427.34 384.66 438.13 392.50   A 1.00 1.00 0.0 0 0 439.71 391.81   Q 440.07 388.63 440.99 385.57   C 442.46 380.66 446.34 367.29 447.22 367.07   A 0.41 0.41 0.0 0 1 447.72 367.44   L 450.02 402.01   A 0.99 0.98 22.3 0 0 450.28 402.62   L 500.17 458.13   Q 501.59 459.72 501.90 457.61   Q 504.24 441.48 505.20 425.25   Q 505.37 422.44 503.45 420.29   Q 477.22 390.83 448.70 363.56   A 0.98 0.98 0.0 0 1 448.40 363.02   L 446.28 351.51   A 0.65 0.65 0.0 0 1 446.79 350.76   C 449.05 350.32 495.38 397.22 501.55 402.27   Q 503.24 403.65 504.80 405.19   Q 506.43 406.79 506.50 404.50   Q 507.17 382.02 507.05 359.24   C 506.98 346.20 508.34 331.30 507.93 317.75   Q 507.83 314.65 508.83 312.43   Q 508.94 312.19 508.92 311.94   Q 508.76 310.08 510.31 309.07   Q 512.12 307.89 513.28 306.88   Q 514.90 305.46 514.94 307.61   Q 515.08 314.40 514.99 320.83   Q 514.87 331.08 514.89 334.80   Q 515.10 366.72 514.97 398.32   Q 514.96 400.46 516.61 399.09   Q 526.38 390.94 535.89 382.91   Q 537.04 381.94 537.91 381.44   A 1.01 1.00 -16.0 0 1 539.41 382.27   L 539.91 394.19   A 0.98 0.98 0.0 0 1 539.59 394.96   L 517.86 415.17   A 1.03 1.02 70.4 0 0 517.55 415.83   C 517.30 419.20 518.11 422.95 518.01 426.49   Q 517.69 437.97 518.90 449.38   A 1.10 1.02 -38.7 0 1 518.82 449.91   Q 518.40 450.81 518.79 451.41   A 0.64 0.64 0.0 0 0 519.85 451.42   Q 539.82 422.28 560.23 393.49   Q 561.69 391.43 562.18 388.98   Q 566.61 366.65 569.53 344.07   Q 569.81 341.90 571.07 340.39   Q 575.19 335.52 580.93 332.55   Q 584.03 330.94 582.25 333.94   Q 579.41 338.74 578.45 344.28   Q 575.96 358.67 573.83 373.11   Q 573.41 376.00 575.51 373.98   Q 580.81 368.91 585.38 363.19   Q 587.11 361.03 587.16 363.80   L 587.29 370.08   A 0.99 0.96 -27.3 0 1 587.08 370.71   Q 561.96 403.15 541.33 438.62   Q 530.49 457.26 519.54 475.83   A 1.05 1.05 0.0 0 0 519.40 476.39   L 520.96 506.40   Q 521.08 508.75 522.69 507.04   Q 532.89 496.18 542.96 485.20   C 544.41 483.61 545.77 481.52 546.66 479.34   Q 565.99 431.86 586.07 384.67   Q 587.72 380.79 587.99 385.00   Q 588.34 390.72 588.12 397.41   Q 588.02 400.41 586.84 403.35   Q 572.15 440.19 558.48 477.43   Q 557.70 479.55 559.79 478.70   Q 581.69 469.78 603.76 461.27   C 607.28 459.91 608.77 459.63 611.15 456.49   Q 620.38 444.32 629.53 431.94   A 1.00 1.00 0.0 0 1 631.20 432.04   L 634.00 436.98   A 1.00 0.99 50.0 0 1 633.91 438.09   Q 628.14 445.34 623.46 454.39   Z   M 547.94 531.33   C 551.61 527.81 559.04 521.27 562.70 516.44   C 573.41 502.32 583.94 486.82 596.08 473.95   A 0.62 0.61 -28.8 0 0 596.24 473.41   Q 596.15 472.84 595.57 473.09   Q 566.93 485.44 555.91 490.04   C 553.12 491.21 551.60 492.81 549.82 495.07   Q 536.74 511.65 523.75 528.33   A 1.03 1.02 62.5 0 0 523.54 529.01   L 524.91 550.06   Q 525.04 552.05 526.56 550.75   Q 537.54 541.33 547.94 531.33   Z   M 486.50 592.22   Q 487.93 593.25 488.08 591.49   L 490.57 562.05   A 1.04 1.03 -63.2 0 0 490.33 561.31   Q 464.84 531.79 437.95 503.53   A 0.83 0.81 -24.9 0 0 437.26 503.29   Q 436.38 503.42 436.70 504.51   Q 444.12 530.16 456.56 570.53   A 1.03 1.03 0.0 0 0 456.93 571.05   L 486.50 592.22   Z"/>
<circle fill="#f46d26" cx="668.64" cy="315.40" r="8.77"/>
<circle fill="#eb4933" cx="472.04" cy="318.03" r="8.76"/>
<circle fill="#e94137" cx="554.09" cy="319.51" r="8.34"/>
<circle fill="#eb4933" cx="575.65" cy="320.02" r="7.81"/>
<circle fill="#f48527" cx="395.35" cy="320.46" r="8.10"/>
<circle fill="#f79420" cx="372.81" cy="322.75" r="8.59"/>
<circle fill="#eb4933" cx="602.72" cy="326.17" r="8.79"/>
<circle fill="#f79420" cx="327.19" cy="331.20" r="9.02"/>
<circle fill="#e94137" cx="529.27" cy="333.04" r="9.37"/>
<circle fill="#f15c2f" cx="648.67" cy="332.40" r="8.69"/>
<circle fill="#f46d26" cx="688.52" cy="333.77" r="9.02"/>
<circle fill="#e94137" cx="492.94" cy="335.37" r="9.20"/>
<circle fill="#f79420" cx="352.74" cy="336.92" r="8.25"/>
<circle fill="#f68031" cx="424.42" cy="337.81" r="8.88"/>
<circle fill="#eb4933" cx="627.82" cy="339.00" r="8.62"/>
<circle fill="#ee6730" cx="446.37" cy="339.42" r="8.41"/>
<circle fill="#e94137" cx="469.98" cy="343.12" r="9.36"/>
<circle fill="#dd8c30" cx="371.50" cy="342.57" r="7.78"/>
<circle fill="#e13d39" cx="556.72" cy="344.16" r="9.48"/>
<circle fill="#d68038" cx="401.78" cy="344.58" r="7.72"/>
<circle fill="#e13d39" cx="596.72" cy="345.28" r="6.94"/>
<circle fill="#f15c2f" cx="665.98" cy="349.50" r="7.19"/>
<circle fill="#db333b" cx="490.59" cy="359.05" r="9.34"/>
<circle fill="#f46d26" cx="699.44" cy="358.83" r="8.03"/>
<circle fill="#f79420" cx="319.52" cy="358.42" r="6.65"/>
<circle fill="#d08340" cx="385.43" cy="360.47" r="7.65"/>
<circle fill="#e94137" cx="622.77" cy="361.17" r="8.69"/>
<circle fill="#dd8c30" cx="343.78" cy="360.95" r="6.95"/>
<circle fill="#d68038" cx="429.68" cy="362.21" r="8.20"/>
<circle fill="#eb4933" cx="645.13" cy="362.42" r="7.97"/>
<ellipse fill="#d38f33" cx="0.00" cy="0.00" transform="translate(364.71,363.86) rotate(3.6)" rx="7.80" ry="7.38"/>
<circle fill="#ee6730" cx="677.05" cy="366.06" r="8.12"/>
<circle fill="#d08340" cx="405.68" cy="365.69" r="7.19"/>
<circle fill="#d5213f" cx="531.88" cy="367.12" r="8.64"/>
<circle fill="#db333b" cx="602.14" cy="372.23" r="8.46"/>
<ellipse fill="#e13d39" cx="0.00" cy="0.00" transform="translate(554.90,374.72) rotate(84.3)" rx="7.84" ry="7.39"/>
<ellipse fill="#f09c2d" cx="0.00" cy="0.00" transform="translate(317.17,380.45) rotate(-18.8)" rx="6.96" ry="6.55"/>
<circle fill="#bd803c" cx="389.58" cy="383.05" r="8.59"/>
<circle fill="#d38f33" cx="338.70" cy="383.15" r="7.93"/>
<circle fill="#eb4933" cx="656.89" cy="382.85" r="7.55"/>
<ellipse fill="#eb4933" cx="0.00" cy="0.00" transform="translate(678.80,384.29) rotate(105.6)" rx="7.92" ry="7.62"/>
<circle fill="#eb4933" cx="628.46" cy="384.51" r="8.05"/>
<circle fill="#bd803c" cx="363.32" cy="384.68" r="7.98"/>
<circle fill="#f15c2f" cx="721.29" cy="383.86" r="7.24"/>
<circle fill="#e6513d" cx="699.91" cy="383.99" r="6.77"/>
<ellipse fill="#f09c2d" cx="0.00" cy="0.00" transform="translate(300.31,384.98) rotate(-7.3)" rx="6.52" ry="6.20"/>
<circle fill="#dc593a" cx="467.82" cy="398.29" r="6.29"/>
<circle fill="#677358" cx="374.97" cy="405.09" r="9.07"/>
<circle fill="#975c3c" cx="419.18" cy="401.03" r="5.20"/>
<circle fill="#717056" cx="403.47" cy="404.62" r="8.30"/>
<circle fill="#d5213f" cx="606.74" cy="405.71" r="9.00"/>
<circle fill="#e13d39" cx="653.27" cy="403.73" r="6.56"/>
<circle fill="#eb4933" cx="698.13" cy="404.46" r="7.24"/>
<circle fill="#657b51" cx="324.68" cy="406.61" r="7.63"/>
<circle fill="#677358" cx="348.11" cy="407.34" r="8.21"/>
<circle fill="#eb4933" cx="676.72" cy="406.50" r="7.32"/>
<circle fill="#dd283f" cx="633.76" cy="409.11" r="7.27"/>
<circle fill="#eb4933" cx="721.28" cy="409.65" r="7.41"/>
<circle fill="#657b51" cx="302.72" cy="409.78" r="5.97"/>
<ellipse fill="#dc593a" cx="0.00" cy="0.00" transform="translate(484.07,418.90) rotate(-35.1)" rx="7.07" ry="6.81"/>
<ellipse fill="#e13d39" cx="0.00" cy="0.00" transform="translate(677.44,422.36) rotate(57.5)" rx="7.12" ry="6.88"/>
<circle fill="#57675c" cx="389.51" cy="425.50" r="7.81"/>
<circle fill="#e94137" cx="709.35" cy="428.75" r="9.11"/>
<ellipse fill="#d5213f" cx="0.00" cy="0.00" transform="translate(610.05,428.42) rotate(92.9)" rx="8.61" ry="8.30"/>
<circle fill="#dd283f" cx="653.78" cy="428.24" r="8.50"/>
<circle fill="#717056" cx="414.44" cy="428.49" r="8.31"/>
<circle fill="#506f5d" cx="344.78" cy="429.52" r="8.71"/>
<circle fill="#477761" cx="318.83" cy="431.19" r="7.36"/>
<circle fill="#eb4933" cx="731.37" cy="435.08" r="7.09"/>
<path fill="#2a1735" d="   M 654.25 513.29   Q 655.31 515.51 657.50 514.21   L 662.99 515.79   Q 665.29 516.45 663.06 517.31   Q 661.59 517.87 660.12 518.51   Q 657.71 519.56 655.63 520.05   Q 641.00 523.51 626.26 526.53   Q 626.03 526.57 625.85 526.71   L 614.50 535.29   Q 614.21 535.25 614.02 535.04   A 0.51 0.50 -37.5 0 1 614.13 534.26   Q 615.98 533.13 614.74 531.04   Q 612.29 526.91 608.50 525.96   L 618.24 518.10   A 0.98 0.98 0.0 0 0 618.55 517.65   Q 625.82 496.86 633.45 476.19   Q 636.89 466.87 641.03 457.85   Q 642.06 455.60 639.76 456.50   L 626.29 461.75   C 625.94 459.57 628.08 456.63 625.68 455.14   A 1.00 0.97 -33.5 0 0 624.98 455.01   Q 623.08 455.34 623.46 454.39   Q 653.66 444.44 683.71 434.15   Q 686.93 433.05 689.42 433.44   Q 692.62 433.94 695.65 435.49   Q 697.96 436.68 695.45 437.35   Q 692.87 438.03 689.74 439.09   Q 670.70 445.49 651.74 452.09   A 1.01 1.01 0.0 0 0 651.12 452.71   Q 642.61 477.33 641.25 482.49   Q 636.88 499.12 632.17 515.60   A 1.00 1.00 0.0 0 0 633.35 516.85   Q 643.72 514.53 654.25 513.29   Z"/>
<circle fill="#11566d" cx="295.86" cy="444.95" r="7.18"/>
<circle fill="#d5213f" cx="596.09" cy="449.34" r="9.24"/>
<circle fill="#dd283f" cx="694.54" cy="451.21" r="6.52"/>
<circle fill="#218191" cx="333.53" cy="452.77" r="6.82"/>
<ellipse fill="#1a7e8e" cx="0.00" cy="0.00" transform="translate(313.52,455.12) rotate(-18.0)" rx="7.58" ry="7.32"/>
<circle fill="#218191" cx="354.35" cy="456.64" r="8.30"/>
<circle fill="#e94137" cx="716.50" cy="458.94" r="9.37"/>
<circle fill="#dd283f" cx="671.65" cy="458.98" r="7.13"/>
<ellipse fill="#218191" cx="0.00" cy="0.00" transform="translate(377.12,460.48) rotate(-16.2)" rx="7.10" ry="6.78"/>
<circle fill="#e6513d" cx="743.66" cy="465.54" r="6.67"/>
<circle fill="#09314d" cx="280.53" cy="468.54" r="7.06"/>
<circle fill="#11566d" cx="298.88" cy="473.84" r="6.17"/>
<circle fill="#218191" cx="392.43" cy="476.36" r="8.59"/>
<circle fill="#218191" cx="342.80" cy="478.28" r="8.67"/>
<circle fill="#d5213f" cx="618.86" cy="477.99" r="7.52"/>
<circle fill="#dd283f" cx="696.29" cy="479.95" r="9.20"/>
<ellipse fill="#218191" cx="0.00" cy="0.00" transform="translate(367.00,480.53) rotate(-2.2)" rx="9.27" ry="8.95"/>
<circle fill="#1a7e8e" cx="319.17" cy="480.48" r="8.04"/>
<circle fill="#dd283f" cx="672.89" cy="480.70" r="7.62"/>
<circle fill="#dd283f" cx="652.82" cy="481.19" r="7.57"/>
<circle fill="#e94137" cx="723.62" cy="483.75" r="8.99"/>
<circle fill="#218191" cx="411.67" cy="485.82" r="6.42"/>
<circle fill="#083753" cx="287.35" cy="490.48" r="4.62"/>
<circle fill="#f15c2f" cx="749.32" cy="497.80" r="7.41"/>
<circle fill="#0f4e63" cx="334.36" cy="499.22" r="8.24"/>
<circle fill="#11566d" cx="304.66" cy="500.27" r="8.44"/>
<ellipse fill="#d5213f" cx="0.00" cy="0.00" transform="translate(661.91,501.24) rotate(-39.2)" rx="8.80" ry="8.47"/>
<circle fill="#d5213f" cx="609.19" cy="501.37" r="8.39"/>
<circle fill="#dd283f" cx="684.09" cy="502.09" r="8.34"/>
<circle fill="#dd283f" cx="705.92" cy="506.94" r="8.88"/>
<circle fill="#11566d" cx="356.61" cy="507.57" r="9.28"/>
<circle fill="#e94137" cx="728.93" cy="507.70" r="7.79"/>
<circle fill="#11566d" cx="279.01" cy="514.49" r="9.17"/>
<path fill="#b21c43" d="   M 654.25 513.29   L 657.50 514.21   Q 655.31 515.51 654.25 513.29   Z"/>
<circle fill="#f15c2f" cx="750.68" cy="521.47" r="7.86"/>
<ellipse fill="#d5213f" cx="0.00" cy="0.00" transform="translate(674.91,524.01) rotate(54.3)" rx="9.26" ry="8.98"/>
<circle fill="#09314d" cx="303.16" cy="524.44" r="9.07"/>
<circle fill="#0f4e63" cx="331.88" cy="523.62" r="7.81"/>
<circle fill="#11566d" cx="372.98" cy="525.89" r="7.43"/>
<circle fill="#c82142" cx="699.65" cy="530.07" r="9.28"/>
<circle fill="#084459" cx="318.76" cy="538.81" r="8.07"/>
<circle fill="#c82142" cx="723.81" cy="539.90" r="8.44"/>
<circle fill="#083753" cx="279.81" cy="541.02" r="8.39"/>
<circle fill="#bc2141" cx="683.45" cy="547.28" r="7.89"/>
<circle fill="#d83f32" cx="753.39" cy="546.87" r="6.70"/>
<circle fill="#083753" cx="308.35" cy="557.42" r="8.30"/>
<circle fill="#084459" cx="350.71" cy="562.88" r="7.21"/>
<circle fill="#b21c43" cx="728.58" cy="566.11" r="9.36"/>
<circle fill="#084459" cx="328.65" cy="568.58" r="7.83"/>
<circle fill="#b21c43" cx="702.26" cy="568.59" r="8.03"/>
<circle fill="#b21c43" cx="751.08" cy="572.99" r="8.96"/>
<ellipse fill="#0f4e63" cx="0.00" cy="0.00" transform="translate(283.05,573.55) rotate(83.7)" rx="8.69" ry="8.33"/>
<circle fill="#b21c43" cx="674.50" cy="574.47" r="9.76"/>
<path fill="#103c59" d="   M 531.38 649.79   L 534.46 702.25   C 533.36 702.36 534.01 700.08 533.04 701.38   A 1.02 1.02 0.0 0 1 532.19 701.78   C 523.89 701.41 515.61 700.68 507.32 701.05   C 499.06 701.41 490.03 701.20 482.89 703.19   A 1.05 1.01 8.8 0 0 482.36 703.56   L 481.29 705.00   L 483.58 666.28   Q 486.80 665.72 486.86 661.80   Q 486.97 654.45 486.65 646.78   A 1.01 1.00 83.2 0 1 487.45 645.76   C 490.91 645.05 493.68 644.73 497.27 643.15   C 502.78 640.72 507.67 642.21 513.56 641.61   C 516.34 641.33 518.55 642.45 521.28 641.31   Q 523.56 640.36 526.06 641.37   A 1.05 1.03 85.1 0 1 526.56 641.80   L 529.15 646.34   A 1.01 1.01 0.0 0 0 529.63 646.76   Q 531.38 647.51 531.38 649.79   Z"/>
<path fill="#236880" d="   M 534.46 702.25   L 537.08 751.95   A 1.00 1.00 0.0 0 1 536.08 753.00   L 479.39 753.00   A 1.00 0.99 -88.1 0 1 478.40 751.93   L 481.29 705.00   L 482.36 703.56   A 1.05 1.01 8.8 0 1 482.89 703.19   C 490.03 701.20 499.06 701.41 507.32 701.05   C 515.61 700.68 523.89 701.41 532.19 701.78   A 1.02 1.02 0.0 0 0 533.04 701.38   C 534.01 700.08 533.36 702.36 534.46 702.25   Z"/>
</svg>