<?xml version="1.0" encoding="UTF-8" standalone="no"?>
<!-- Created with Inkscape (http://www.inkscape.org/) -->

<svg
   width="86.571609mm"
   height="88.453102mm"
   viewBox="0 0 86.57161 88.453102"
   version="1.1"
   id="svg5"
   xml:space="preserve"
   inkscape:version="1.2.2 (b0a8486541, 2022-12-01)"
   sodipodi:docname="logo_pure_svg_no_color.svg"
   xmlns:inkscape="http://www.inkscape.org/namespaces/inkscape"
   xmlns:sodipodi="http://sodipodi.sourceforge.net/DTD/sodipodi-0.dtd"
   xmlns="http://www.w3.org/2000/svg"
   xmlns:svg="http://www.w3.org/2000/svg"><sodipodi:namedview
     id="namedview7"
     pagecolor="#ffffff"
     bordercolor="#000000"
     borderopacity="0.25"
     inkscape:showpageshadow="2"
     inkscape:pageopacity="0.0"
     inkscape:pagecheckerboard="0"
     inkscape:deskcolor="#d1d1d1"
     inkscape:document-units="mm"
     showgrid="false"
     inkscape:zoom="1.5706386"
     inkscape:cx="77.357069"
     inkscape:cy="214.24406"
     inkscape:window-width="1920"
     inkscape:window-height="1136"
     inkscape:window-x="0"
     inkscape:window-y="0"
     inkscape:window-maximized="1"
     inkscape:current-layer="layer1" /><defs
     id="defs2" /><g
     inkscape:label="Layer 1"
     inkscape:groupmode="layer"
     id="layer1"
     transform="translate(-33.661602,-106.776)"><path
       style="fill:#010101;stroke:none;stroke-width:0.264583"
       d="m 65.569661,106.94083 c -2.0185,0.17166 -1.67508,3.15144 0.25744,3.09744 2.091,-0.0584 1.80578,-3.27292 -0.25744,-3.09744"
       id="path7030" /><path
       style="fill:#183248;stroke:none;stroke-width:0.264583"
       d="m 75.394541,133.84577 -10.58333,-9.78958 c 1.01044,5.34088 7.46098,7.88855 10.07189,12.43541 0.97234,1.69334 -0.0164,4.72176 -0.0177,6.61459 l -6.60135,-6.87917 -2.76411,-3.43958 -0.42412,-5.55625 h -0.26458 l -1.05834,4.23333 c -2.06877,-0.97875 -4.17171,-3.31047 -6.61458,-2.64583 v 0.26458 c 5.25462,3.76343 9.24216,7.56364 13.19768,12.7 1.15041,1.49384 3.07472,3.17791 3.59886,5.02708 0.38973,1.37451 -0.1352,3.37714 -0.39237,4.7625 l -7.98275,-9.26041 -3.12975,-8.20209 h -0.26459 c -1.2946,2.40268 0.68924,5.17314 1.05834,7.67292 -1.73699,-1.15332 -3.22152,-1.58618 -5.29167,-1.5875 l 6.35,4.39446 6.37117,6.98262 2.37384,3.175 -0.0138,3.43959 -15.08125,-15.08125 c -2.44092,-2.43682 -5.31053,-5.96265 -8.46667,-7.40834 0.11777,2.15107 1.68241,3.1922 3.175,4.5429 2.41776,2.18757 5.21541,4.386 7.34893,6.8445 1.84719,2.12884 2.01679,6.06081 2.70524,8.72094 -3.23059,-2.17753 -7.64776,-6.07166 -11.64167,-6.08542 v 0.26458 l 8.20208,5.60679 3.77614,2.88448 1.25095,3.94415 c -4.0267,-0.83106 -7.96436,-2.13307 -11.90625,-3.28718 -7.89919,-1.80881 -7.97021,-1.14682 0,1.69968 l -2.11667,1.5875 v 0.26458 c 7.18386,0 12.87357,0.17357 18.25625,5.55625 1.04775,1.04775 2.77998,2.26325 3.27607,3.70417 0.62812,1.82509 -0.21034,4.95538 -0.34184,6.87916 -0.372,5.42899 -0.81756,10.96222 -0.81756,16.40417 h 10.05417 c 0,-4.9186 -0.10848,-9.92346 -0.57415,-14.81667 -0.24051,-2.5273 -1.15544,-6.51774 -0.34819,-8.95085 0.72258,-2.17778 4.94294,-6.34047 7.00775,-7.2808 2.18334,-0.99431 6.60665,-2.68341 8.99584,-2.4429 2.7895,0.28099 4.301329,2.20583 7.143749,0.94747 v -0.52916 l -2.38125,-0.79375 v -0.52917 l 4.49792,-3.70417 c -5.132659,1.67005 -10.092539,3.85498 -15.610419,3.96875 l 7.40833,-5.80099 6.349999,-1.87192 h -5.556249 c 1.20835,-3.20305 1.33641,-8.39497 3.588549,-11.03895 1.42187,-1.66926 5.69992,-2.54741 7.78854,-2.98397 v -0.26458 c -4.1238,-0.97896 -8.6667,2.48946 -12.700009,3.175 0.76094,-1.36684 1.66238,-2.33919 1.32292,-3.96875 l -4.24365,4.85536 -8.72093,3.6113 c 1.50733,-5.52265 5.29166,-10.87993 5.29166,-16.66875 h -0.26458 l -7.16254,16.66875 -4.47913,5.02709 c -0.005,-1.73064 -0.54477,-3.58035 -0.16034,-5.29167 0.91282,-4.06612 4.83235,-8.67066 7.05353,-12.17083 1.55125,-2.44425 4.65323,-5.20843 4.74848,-8.20209 h -0.26458 l -2.11667,2.38125 1.5875,-7.67291 c -3.46498,1.65459 -2.46803,6.58534 -3.52954,9.78958 -1.23772,3.73512 -5.27579,8.40475 -7.84754,11.37708 0,-1.83938 -0.52097,-4.60666 0.15954,-6.32618 1.0287,-2.59874 3.54224,-2.87047 3.54462,-6.10923 l -4.23333,3.175 v -16.40417 c -1.41737,0.78158 -1.19777,3.01506 -1.29911,4.49792 -0.29395,4.29122 -0.10742,8.66428 -0.28839,12.96458 m 24.07708,8.99583 -4.19179,10.77225 -6.12696,5.07127 -9.78958,7.43982 c -0.0214,-1.04484 -0.47096,-2.36406 -0.1143,-3.36392 0.40693,-1.14062 1.73567,-2.1209 2.54053,-2.99005 3.20384,-3.46022 5.62239,-4.91914 10.00919,-6.34603 l -3.43959,-0.79375 c 1.92485,-4.55348 6.09627,-9.03817 11.1125,-9.78959 m -8.20208,2.9104 c -0.71729,1.5658 -2.03941,2.85962 -3.07605,4.23333 -2.55243,3.38323 -5.51577,7.5311 -9.35937,9.525 -2.09682,-7.09374 6.8244,-12.14252 12.43542,-13.75833 m -28.04583,5.29167 6.95377,7.40833 2.39184,3.175 -0.34978,5.29167 c -5.19086,-2.18361 -6.33016,-5.87349 -7.7851,-10.84792 -0.44715,-1.52823 -1.41155,-3.43006 -1.21073,-5.02708 m 26.19375,10.0542 -0.26459,0.26459 0.26459,-0.26459"
       id="path408" /><path
       style="fill:#010101;stroke:none;stroke-width:0.264583"
       d="m 35.178201,163.06626 c -1.47501,0.82894 -0.23833,3.0853 1.24472,2.31087 1.5599,-0.81465 0.31681,-3.18823 -1.24472,-2.31087 z"
       id="path7365" /><path
       style="fill:#010101;stroke:none;stroke-width:0.264583"
       d="m 118.25336,162.73262 c -1.74123,0.66939 -0.78502,3.32925 1.00779,2.7469 1.82457,-0.59293 0.8472,-3.45969 -1.00779,-2.7469"
       id="path7363" /><path
       style="fill:#010101;stroke:none;stroke-width:0.264583"
       d="m 104.74003,162.76732 c -2.07645,0.75009 -0.88054,3.97933 1.24698,3.00143 1.67851,-0.77152 0.57097,-3.65839 -1.24698,-3.00143"
       id="path7361" /><path
       style="fill:#010101;stroke:none;stroke-width:0.264583"
       d="m 43.380271,162.2736 c -1.4418,0.7927 -0.13825,2.87153 1.19962,2.05185 1.2451,-0.76306 0.14306,-2.79003 -1.19962,-2.05185"
       id="path7359" /><path
       style="fill:#010101;stroke:none;stroke-width:0.264583"
       d="m 110.00973,161.99579 c -1.70762,0.20611 -1.41499,2.79374 0.26432,2.53365 1.58406,-0.24527 1.3425,-2.72759 -0.26432,-2.53365"
       id="path7357" /><path
       style="fill:#010101;stroke:none;stroke-width:0.264583"
       d="m 114.27799,161.4108 c -1.92855,0.69797 -0.61939,3.57769 1.25518,2.76939 1.64915,-0.7112 0.40799,-3.37132 -1.25518,-2.76939"
       id="path7355" /><path
       style="fill:#010101;stroke:none;stroke-width:0.264583"
       d="m 47.599311,161.22559 c -1.39395,0.28998 -0.86502,2.49608 0.47938,2.15953 1.35993,-0.34025 0.91119,-2.44845 -0.47938,-2.15953"
       id="path7353" /><path
       style="fill:#010101;stroke:none;stroke-width:0.264583"
       d="m 39.697561,160.15694 c -1.44447,0.81386 -0.27332,3.10621 1.20205,2.30981 1.49231,-0.80539 0.2717,-3.14034 -1.20205,-2.30981"
       id="path7351" /><path
       style="fill:#010101;stroke:none;stroke-width:0.264583"
       d="m 118.59837,158.56944 c -1.12368,0.72469 -0.0291,2.51222 1.12395,1.8206 1.17025,-0.70194 0.0365,-2.56911 -1.12395,-1.8206"
       id="path7349" /><path
       style="fill:#010101;stroke:none;stroke-width:0.264583"
       d="m 106.37145,158.23977 c -1.50389,0.55165 -0.67734,3.12843 0.93847,2.49052 1.43828,-0.5678 0.51885,-3.02525 -0.93847,-2.49052"
       id="path7347" /><path
       style="fill:#010101;stroke:none;stroke-width:0.264583"
       d="m 34.649031,157.24652 c -1.51733,0.82471 -0.26196,3.17527 1.24452,2.35638 1.51732,-0.82471 0.26196,-3.17526 -1.24452,-2.35638"
       id="path7345" /><path
       style="fill:#010101;stroke:none;stroke-width:0.264583"
       d="m 113.28289,156.97797 c -1.6166,0.98055 -0.14155,3.32793 1.42108,2.36432 1.47161,-0.90805 0.0995,-3.28666 -1.42108,-2.36432"
       id="path7343" /><path
       style="fill:#010101;stroke:none;stroke-width:0.264583"
       d="m 41.549641,156.90657 c -1.40967,0.58896 -0.38256,2.69796 0.98319,2.26907 1.73247,-0.54398 0.58217,-2.92338 -0.98319,-2.26907"
       id="path7341" /><path
       style="fill:#010101;stroke:none;stroke-width:0.264583"
       d="m 108.99691,155.05343 c -1.69625,0.70564 -0.60405,3.5605 1.25598,2.81358 1.91426,-0.76862 0.60907,-3.5896 -1.25598,-2.81358"
       id="path7339" /><path
       style="fill:#010101;stroke:none;stroke-width:0.264583"
       d="m 51.553591,154.61105 c -1.48439,0.30268 -0.95731,2.62546 0.48363,2.17011 1.20923,-0.38232 0.8576,-2.44343 -0.48363,-2.17011"
       id="path7337" /><path
       style="fill:#010101;stroke:none;stroke-width:0.264583"
       d="m 43.930681,154.26074 c -1.39377,0.58579 -0.38499,2.65694 0.95972,2.21906 1.49723,-0.48763 0.54928,-2.85353 -0.95972,-2.21906"
       id="path7335" /><path
       style="fill:#010101;stroke:none;stroke-width:0.264583"
       d="m 38.617981,154.33134 c -1.60695,0.94615 -0.0401,3.2512 1.50892,2.36511 1.69116,-0.96758 0.16198,-3.34909 -1.50892,-2.36511"
       id="path7333" /><path
       style="fill:#010101;stroke:none;stroke-width:0.264583"
       d="m 104.49899,154.06755 c -1.7772,1.01547 0.0521,3.74835 1.6981,2.6297 1.51156,-1.02712 -0.0638,-3.56315 -1.6981,-2.6297"
       id="path7331" /><path
       style="fill:#010101;stroke:none;stroke-width:0.264583"
       d="m 118.2777,153.73788 c -1.48352,0.58976 -0.60934,3.14722 0.9607,2.36564 1.3925,-0.69347 0.5543,-2.96809 -0.9607,-2.36564"
       id="path7329" /><path
       style="fill:#010101;stroke:none;stroke-width:0.264583"
       d="m 34.384451,152.48005 c -1.68062,0.9615 -0.11796,3.44276 1.5089,2.39898 1.5693,-1.007 0.0588,-3.29565 -1.5089,-2.39898"
       id="path7327" /><path
       style="fill:#010101;stroke:none;stroke-width:0.264583"
       d="m 114.28857,151.42569 c -1.44938,0.79639 -0.13017,2.87284 1.21947,2.09179 1.33932,-0.77496 0.13864,-2.83792 -1.21947,-2.09179"
       id="path7325" /><path
       style="fill:#010101;stroke:none;stroke-width:0.264583"
       d="m 109.86633,151.15634 c -1.58168,1.07606 0.29554,3.68776 1.88701,2.41009 1.48934,-1.19539 -0.38629,-3.43138 -1.88701,-2.41009"
       id="path7323" /><path
       style="fill:#010101;stroke:none;stroke-width:0.264583"
       d="m 48.383491,151.09204 c -1.83103,0.64452 -0.80595,3.46154 1.01422,2.76542 1.77456,-0.67839 0.78185,-3.39751 -1.01422,-2.76542"
       id="path7321" /><path
       style="fill:#010101;stroke:none;stroke-width:0.264583"
       d="m 106.13147,150.36338 c -1.40705,0.91519 -0.0664,3.21442 1.4642,2.3614 1.68037,-0.93662 0.11166,-3.38666 -1.4642,-2.3614"
       id="path7319" /><path
       style="fill:#010101;stroke:none;stroke-width:0.264583"
       d="m 102.39952,150.0263 c -1.80419,0.75723 -0.4572,3.52557 1.2274,2.65086 1.58459,-0.82286 0.49425,-3.3737 -1.2274,-2.65086"
       id="path7317" /><path
       style="fill:#010101;stroke:none;stroke-width:0.264583"
       d="m 93.139371,150.0333 c -1.66396,0.63394 -0.69347,3.31178 0.97314,2.7551 1.80287,-0.60219 0.8165,-3.43694 -0.97314,-2.7551"
       id="path7315" /><path
       style="fill:#010101;stroke:none;stroke-width:0.264583"
       d="m 38.927281,150.0984 c -1.33628,0.86281 0.0147,3.06308 1.41928,2.24023 1.403,-0.8218 0.0302,-3.17606 -1.41928,-2.24023"
       id="path7313" /><path
       style="fill:#010101;stroke:none;stroke-width:0.264583"
       d="m 117.7734,149.83382 c -1.29619,0.84164 0.17145,2.65033 1.38827,1.83515 1.30016,-0.87127 -0.14578,-2.64213 -1.38827,-1.83515"
       id="path7311" /><path
       style="fill:#010101;stroke:none;stroke-width:0.264583"
       d="m 44.438421,149.77162 c -1.50551,0.55192 -0.49279,3.04139 0.98033,2.35876 1.46116,-0.67707 0.5489,-2.91915 -0.98033,-2.35876"
       id="path7309" /><path
       style="fill:#010101;stroke:none;stroke-width:0.264583"
       d="m 58.456441,147.74491 c -1.03836,0.19738 -0.86741,1.81716 0.23048,1.69254 1.26992,-0.14419 1.0211,-1.93066 -0.23048,-1.69254"
       id="path7305" /><path
       style="fill:#010101;stroke:none;stroke-width:0.264583"
       d="m 113.47101,146.8583 c -1.83409,0.64558 -0.7956,3.4671 1.01415,2.8022 1.78091,-0.65405 0.79825,-3.44012 -1.01415,-2.8022"
       id="path7303" /><path
       style="fill:#010101;stroke:none;stroke-width:0.264583"
       d="m 104.25637,146.6588 c -1.48273,0.89376 0.0672,2.99852 1.41155,2.09973 1.32345,-0.88529 -0.0185,-2.93899 -1.41155,-2.09973"
       id="path7301" /><path
       style="fill:#010101;stroke:none;stroke-width:0.264583"
       d="m 100.79456,146.6694 c -1.503359,0.78529 -0.26114,3.12897 1.17951,2.3032 1.41711,-0.81227 0.29845,-3.07552 -1.17951,-2.3032"
       id="path7299" /><path
       style="fill:#010101;stroke:none;stroke-width:0.264583"
       d="m 41.572901,146.6588 c -1.22814,0.79613 -0.14412,2.79532 1.19983,2.08915 1.49537,-0.78581 0.21749,-3.00752 -1.19983,-2.08915"
       id="path7297" /><path
       style="fill:#010101;stroke:none;stroke-width:0.264583"
       d="m 50.248821,146.34236 c -1.79241,0.59875 -0.81049,3.23321 1.01444,2.52836 1.74877,-0.67549 0.65363,-3.08531 -1.01444,-2.52836"
       id="path7295" /><path
       style="fill:#010101;stroke:none;stroke-width:0.264583"
       d="m 108.46377,146.08862 c -1.87801,0.78343 -0.52546,3.85154 1.25889,2.93053 1.76027,-0.90858 0.56541,-3.6912 -1.25889,-2.93053"
       id="path7293" /><path
       style="fill:#010101;stroke:none;stroke-width:0.264583"
       d="m 94.731631,146.13362 c -1.41102,0.80142 -0.24368,2.94772 1.20121,2.2569 1.53062,-0.73158 0.24659,-3.07922 -1.20121,-2.2569"
       id="path7291" /><path
       style="fill:#010101;stroke:none;stroke-width:0.264583"
       d="m 45.761731,146.13362 c -1.48489,0.81016 -0.21968,3.11494 1.24452,2.34977 1.53128,-0.8001 0.25707,-3.16892 -1.24452,-2.34977"
       id="path7289" /><path
       style="fill:#010101;stroke:none;stroke-width:0.264583"
       d="m 54.537691,145.86507 c -1.39406,0.89773 -0.002,3.23374 1.41928,2.16508 1.28754,-0.96811 -0.009,-3.07287 -1.41928,-2.16508"
       id="path7287" /><path
       style="fill:#010101;stroke:none;stroke-width:0.264583"
       d="m 37.986131,145.86507 c -0.83093,0.694 0.39073,1.90844 1.1888,1.30228 0.95409,-0.7247 -0.32425,-2.02459 -1.1888,-1.30228 m -0.03352,0.0492 c -0.83093,0.694 0.39073,1.90844 1.1888,1.30228 0.95409,-0.7247 -0.32425,-2.02459 -1.1888,-1.30228"
       id="path7285" /><path
       style="fill:#010101;stroke:none;stroke-width:0.264583"
       d="m 35.903532,148.62679 c -0.83093,0.694 0.39073,1.90844 1.1888,1.30228 0.95409,-0.7247 -0.32425,-2.02459 -1.1888,-1.30228 m -0.03352,0.0492 c -0.83093,0.694 0.39073,1.90844 1.1888,1.30228 0.95409,-0.7247 -0.32425,-2.02459 -1.1888,-1.30228"
       id="path7285-3" /><path
       style="fill:#010101;stroke:none;stroke-width:0.264583"
       d="m 35.163911,144.52601 c -1.36266,0.32015 -0.90827,2.29632 0.47282,2.02459 1.35168,-0.26564 0.83969,-2.33309 -0.47282,-2.02459"
       id="path7283" /><path
       style="fill:#010101;stroke:none;stroke-width:0.264583"
       d="m 117.21619,143.99685 c -1.18613,0.30189 -0.83317,2.28176 0.45535,2.02459 1.38165,-0.27543 0.83317,-2.35268 -0.45535,-2.02459"
       id="path7281" /><path
       style="fill:#010101;stroke:none;stroke-width:0.264583"
       d="m 52.111521,143.24702 c -1.23555,0.59372 -0.22302,2.40347 0.90442,1.75286 1.06442,-0.6141 0.23527,-2.30081 -0.90442,-1.75286"
       id="path7279" /><path
       style="fill:#010101;stroke:none;stroke-width:0.264583"
       d="m 104.7178,142.68319 c -1.52135,0.0228 -1.56342,2.30135 0,2.30135 1.52109,0 1.4814,-2.32331 0,-2.30135"
       id="path7277" /><path
       style="fill:#010101;stroke:none;stroke-width:0.264583"
       d="m 112.14836,142.3604 c -1.85341,0.65008 -0.86545,3.68988 1.02738,3.02366 1.86981,-0.65802 0.90328,-3.70073 -1.02738,-3.02366"
       id="path7275" /><path
       style="fill:#010101;stroke:none;stroke-width:0.264583"
       d="m 47.899221,142.3544 c -1.45709,0.60854 -0.50295,2.79188 0.97015,2.27303 1.64195,-0.57864 0.57409,-2.91809 -0.97015,-2.27303"
       id="path7273" /><path
       style="fill:#010101;stroke:none;stroke-width:0.264583"
       d="m 40.734431,142.17554 c -1.33881,0.6649 -0.33715,2.63313 0.97997,2.01771 1.35265,-0.63209 0.31014,-2.65827 -0.97997,-2.01771"
       id="path7271" /><path
       style="fill:#010101;stroke:none;stroke-width:0.264583"
       d="m 44.219161,141.90725 c -1.10911,0.67628 0.10493,2.45057 1.15059,1.65815 1.02346,-0.77576 -0.09,-2.30505 -1.15059,-1.65815"
       id="path7269" /><path
       style="fill:#010101;stroke:none;stroke-width:0.264583"
       d="m 108.24814,141.63606 c -1.05384,0.65193 -0.22119,2.35161 0.93609,1.8034 1.34276,-0.6358 0.31221,-2.57572 -0.93609,-1.8034"
       id="path7267" /><path
       style="fill:#010101;stroke:none;stroke-width:0.264583"
       d="m 90.497241,140.83754 c -1.77138,1.07077 0.002,3.67586 1.73143,2.63049 1.77139,-1.07077 -0.002,-3.67586 -1.73143,-2.63049"
       id="path7265" /><path
       style="fill:#010101;stroke:none;stroke-width:0.264583"
       d="m 37.415531,140.57375 c -1.03238,0.79561 0.2422,2.47703 1.34249,1.63566 1.16123,-0.88794 -0.29464,-2.4429 -1.34249,-1.63566"
       id="path7263" /><path
       style="fill:#010101;stroke:none;stroke-width:0.264583"
       d="m 114.62962,138.72167 c -1.23719,0.84111 0.14923,2.65562 1.35626,1.83515 1.23719,-0.84111 -0.14923,-2.65562 -1.35626,-1.83515"
       id="path7261" /><path
       style="fill:#010101;stroke:none;stroke-width:0.264583"
       d="m 41.788691,137.91072 c -1.30455,0.47122 -0.56419,2.39051 0.72046,1.95025 1.28241,-0.43974 0.56224,-2.4138 -0.72046,-1.95025"
       id="path7259" /><path
       style="fill:#010101;stroke:none;stroke-width:0.264583"
       d="m 58.482761,137.40166 c -1.53947,0.89535 0.0359,2.97498 1.41214,2.05661 1.3254,-0.88424 -0.0656,-2.83977 -1.41214,-2.05661"
       id="path7257" /><path
       style="fill:#010101;stroke:none;stroke-width:0.264583"
       d="m 46.286821,137.33366 c -1.63105,0.60774 -0.65677,3.16177 0.98769,2.53761 1.62753,-0.61753 0.66818,-3.15436 -0.98769,-2.53761"
       id="path7255" /><path
       style="fill:#010101;stroke:none;stroke-width:0.264583"
       d="m 110.83867,137.06907 c -1.94733,0.70221 -0.65087,3.60707 1.23375,2.7694 1.65894,-0.7374 0.47308,-3.38455 -1.23375,-2.7694"
       id="path7253" /><path
       style="fill:#010101;stroke:none;stroke-width:0.264583"
       d="m 101.04882,137.06907 c -1.779049,0.644 -0.77999,3.4036 1.00119,2.75908 1.77906,-0.644 0.77999,-3.4036 -1.00119,-2.75908"
       id="path7251" /><path
       style="fill:#010101;stroke:none;stroke-width:0.264583"
       d="m 93.361891,137.06907 c -1.6436,0.58447 -0.9271,3.26205 0.76464,2.77866 1.69916,-0.48578 1.06707,-3.4298 -0.76464,-2.77866"
       id="path7249" /><path
       style="fill:#010101;stroke:none;stroke-width:0.264583"
       d="m 54.249221,136.80846 c -1.47881,0.53816 -0.55801,2.81675 0.93789,2.22594 1.42016,-0.56092 0.43834,-2.7268 -0.93789,-2.22594"
       id="path7247" /><path
       style="fill:#010101;stroke:none;stroke-width:0.264583"
       d="m 70.918871,135.81521 c -1.37795,0.78687 -0.10001,2.64557 1.14697,1.82827 1.16946,-0.7665 0.0807,-2.52915 -1.14697,-1.82827"
       id="path7245" /><path
       style="fill:#010101;stroke:none;stroke-width:0.264583"
       d="m 38.928311,134.50261 c -0.90919,0.54743 0.0314,1.79282 0.87865,1.27741 0.87384,-0.53155 -0.0418,-1.78144 -0.87865,-1.27741"
       id="path7243" /><path
       style="fill:#010101;stroke:none;stroke-width:0.264583"
       d="m 59.763376,132.97503 c -0.90919,0.54743 0.0314,1.79282 0.87865,1.27741 0.87384,-0.53155 -0.0418,-1.78144 -0.87865,-1.27741"
       id="path7243-6" /><path
       style="fill:#010101;stroke:none;stroke-width:0.264583"
       d="m 113.2186,133.94302 c -1.44992,0.33364 -1.01838,2.56937 0.49027,2.28918 1.54147,-0.28628 0.97155,-2.62573 -0.49027,-2.28918"
       id="path7241" /><path
       style="fill:#010101;stroke:none;stroke-width:0.264583"
       d="m 97.399961,133.96312 c -1.22794,0.75591 -0.16643,2.862 1.17792,2.09179 1.36419,-0.78184 0.13362,-2.89904 -1.17792,-2.09179"
       id="path7239" /><path
       style="fill:#010101;stroke:none;stroke-width:0.264583"
       d="m 46.631021,133.69457 c -1.30681,0.87392 0.0512,2.94137 1.38866,2.09682 1.34218,-0.84773 -0.0376,-3.00011 -1.38866,-2.09682"
       id="path7237" /><path
       style="fill:#010101;stroke:none;stroke-width:0.264583"
       d="m 42.631441,133.69857 c -1.17797,0.73077 -0.0309,2.56275 1.1547,1.82721 1.17798,-0.73078 0.031,-2.5627 -1.1547,-1.82721"
       id="path7235" /><path
       style="fill:#010101;stroke:none;stroke-width:0.264583"
       d="m 105.51778,136.06738 c -0.91758,0.5969 -1.4277,2.47756 0.25797,2.47756 1.81451,0 0.89984,-1.95448 0.007,-2.47756 3.44884,-3.10967 -3.90499,-3.13145 -0.26458,0"
       id="path7233" /><path
       style="fill:#010101;stroke:none;stroke-width:0.264583"
       d="m 108.99546,133.10428 c -1.33297,0.47443 -0.64373,2.66782 0.72416,2.24555 1.45363,-0.44873 0.74878,-2.76976 -0.72416,-2.24555"
       id="path7231" /><path
       style="fill:#010101;stroke:none;stroke-width:0.264583"
       d="m 101.07939,133.10428 c -1.252269,0.46464 -0.56383,2.38102 0.69903,1.98097 1.30149,-0.41222 0.61225,-2.46764 -0.69903,-1.98097"
       id="path7229" /><path
       style="fill:#010101;stroke:none;stroke-width:0.264583"
       d="m 92.348931,133.16468 c -1.769,1.06944 0.008,3.63273 1.71794,2.55296 1.72853,-1.09088 -0.0209,-3.57897 -1.71794,-2.55296"
       id="path7227" /><path
       style="fill:#010101;stroke:none;stroke-width:0.264583"
       d="m 56.630081,133.09388 c -1.59388,0.66474 -0.39365,2.99519 1.15816,2.28346 1.47751,-0.6776 0.30512,-2.89386 -1.15816,-2.28346"
       id="path7225" /><path
       style="fill:#010101;stroke:none;stroke-width:0.264583"
       d="m 51.339661,133.16538 c -1.54321,0.93292 -0.0348,3.2094 1.48685,2.36141 1.68965,-0.94166 0.13054,-3.33947 -1.48685,-2.36141"
       id="path7223" /><path
       style="fill:#010101;stroke:none;stroke-width:0.264583"
       d="m 68.031351,132.37562 c -1.10014,0.69813 0.0942,2.24021 1.11998,1.56261 1.0578,-0.69903 -0.0802,-2.22245 -1.11998,-1.56261"
       id="path7219" /><path
       style="fill:#010101;stroke:none;stroke-width:0.264583"
       d="m 38.397931,129.99437 c -0.98144,0.62305 -0.1139,2.10066 0.91072,1.55218 1.16965,-0.62613 0.19535,-2.25438 -0.91072,-1.55218"
       id="path7217" /><path
       style="fill:#010101;stroke:none;stroke-width:0.264583"
       d="m 109.07325,129.72876 c -1.07024,0.71493 0.0236,2.38868 1.12315,1.77776 1.25228,-0.69577 0.0968,-2.59289 -1.12315,-1.77776"
       id="path7215" /><path
       style="fill:#010101;stroke:none;stroke-width:0.264583"
       d="m 113.21556,129.41335 c -1.49251,0.47371 -0.72866,2.73751 0.70935,2.20874 1.3081,-0.48091 0.68739,-2.65197 -0.70935,-2.20874"
       id="path7213" /><path
       style="fill:#010101;stroke:none;stroke-width:0.264583"
       d="m 105.55667,129.40005 c -1.38615,0.48823 -0.7919,2.95928 0.72734,2.51007 1.60681,-0.47508 0.8972,-3.08213 -0.72734,-2.51007"
       id="path7211" /><path
       style="fill:#010101;stroke:none;stroke-width:0.264583"
       d="m 96.560841,129.39605 c -1.53035,0.58378 -0.62574,3.11817 0.98054,2.53109 1.5285,-0.55878 0.65723,-3.15574 -0.98054,-2.53109"
       id="path7209" /><path
       style="fill:#010101;stroke:none;stroke-width:0.264583"
       d="m 49.718451,129.41315 c -1.58671,0.49141 -0.83595,3.01813 0.73824,2.51008 1.5735,-0.50787 0.86029,-3.00517 -0.73824,-2.51008"
       id="path7207" /><path
       style="fill:#010101;stroke:none;stroke-width:0.264583"
       d="m 101.8279,129.15896 c -1.50045,0.38018 -1.02897,2.75993 0.50059,2.41801 1.5195,-0.3397 1.01812,-2.80284 -0.50059,-2.41801"
       id="path7205" /><path
       style="fill:#010101;stroke:none;stroke-width:0.264583"
       d="m 53.984671,129.19656 c -1.57758,0.93628 -0.0729,3.27752 1.46621,2.3641 1.57758,-0.93628 0.0728,-3.27753 -1.46621,-2.3641"
       id="path7203" /><path
       style="fill:#010101;stroke:none;stroke-width:0.264583"
       d="m 45.471651,129.18026 c -1.54353,0.34489 -1.14567,2.81392 0.48731,2.51008 1.56861,-0.29189 1.07807,-2.85986 -0.48731,-2.51008"
       id="path7201" /><path
       style="fill:#010101;stroke:none;stroke-width:0.264583"
       d="m 41.763621,128.94629 c -1.26458,0.25784 -1.0871,2.11619 0.24373,1.97051 1.35514,-0.14835 1.14954,-2.25459 -0.24373,-1.97051"
       id="path7199" /><path
       style="fill:#010101;stroke:none;stroke-width:0.264583"
       d="m 83.376651,127.87653 c -1.34223,0.84762 0.0376,3.00005 1.3888,2.09666 1.30677,-0.87379 -0.0513,-2.94127 -1.3888,-2.09666"
       id="path7197" /><path
       style="fill:#010101;stroke:none;stroke-width:0.264583"
       d="m 91.579001,127.34347 c -1.50707,0.99444 0.12488,3.35092 1.65311,2.32532 1.48696,-0.99769 -0.12065,-3.33653 -1.65311,-2.32532"
       id="path7195" /><path
       style="fill:#010101;stroke:none;stroke-width:0.264583"
       d="m 105.02803,126.29006 c -1.47346,0.80383 -0.22145,3.1296 1.22317,2.34979 1.50283,-0.81113 0.29025,-3.17537 -1.22317,-2.34979"
       id="path7193" /><path
       style="fill:#010101;stroke:none;stroke-width:0.264583"
       d="m 79.363181,126.21456 c -1.55231,0.62423 -0.73871,3.39103 1.00383,2.8022 1.83039,-0.61844 0.81677,-3.53425 -1.00383,-2.8022"
       id="path7191" /><path
       style="fill:#010101;stroke:none;stroke-width:0.264583"
       d="m 57.158241,126.22496 c -1.29873,0.48032 -0.68739,2.66996 0.69943,2.20874 1.33985,-0.44559 0.70297,-2.7274 -0.69943,-2.20874"
       id="path7189" /><path
       style="fill:#010101;stroke:none;stroke-width:0.264583"
       d="m 49.750911,125.94998 c -1.42854,0.59814 -0.41666,2.66329 0.95912,2.21914 1.49833,-0.48372 0.55184,-2.85182 -0.95912,-2.21914"
       id="path7187" /><path
       style="fill:#010101;stroke:none;stroke-width:0.264583"
       d="m 99.711501,125.47613 c -1.55284,0.34526 -1.08242,2.7849 0.506939,2.54069 1.75604,-0.26979 1.11416,-2.90115 -0.506939,-2.54069"
       id="path7185" /><path
       style="fill:#010101;stroke:none;stroke-width:0.264583"
       d="m 61.360141,125.42733 c -1.74971,0.63934 -0.7067,3.16987 0.9951,2.50087 1.60919,-0.63262 0.61357,-3.08869 -0.9951,-2.50087"
       id="path7183" /><path
       style="fill:#010101;stroke:none;stroke-width:0.264583"
       d="m 46.286221,125.44443 c -1.35123,0.44873 -0.68154,2.50727 0.72046,1.98477 1.27283,-0.47434 0.55978,-2.40993 -0.72046,-1.98477"
       id="path7181" /><path
       style="fill:#010101;stroke:none;stroke-width:0.264583"
       d="m 95.498801,125.15617 c -1.69439,0.66336 -0.76809,3.39135 1.0078,2.76545 1.82747,-0.64408 0.80327,-3.47443 -1.0078,-2.76545"
       id="path7179" /><path
       style="fill:#010101;stroke:none;stroke-width:0.264583"
       d="m 53.917491,125.19717 c -1.67939,0.15362 -1.44513,2.48158 0.24355,2.34858 1.47714,-0.11634 1.22978,-2.48336 -0.24355,-2.34858"
       id="path7177" /><path
       style="fill:#010101;stroke:none;stroke-width:0.264583"
       d="m 41.836271,125.23167 c -1.02235,0.64244 -0.23442,2.30082 0.89236,1.74223 1.12795,-0.55914 0.30549,-2.49496 -0.89236,-1.74223"
       id="path7175" /><path
       style="fill:#010101;stroke:none;stroke-width:0.264583"
       d="m 108.99678,124.96709 c -1.47373,0.80383 -0.22145,3.1296 1.22317,2.34979 1.50283,-0.81113 0.29025,-3.17537 -1.22317,-2.34979"
       id="path7173" /><path
       style="fill:#010101;stroke:none;stroke-width:0.264583"
       d="m 72.191651,124.63351 c -2.05422,0.70426 -0.92974,3.72546 1.01812,3.02349 1.82695,-0.65825 0.89403,-3.679 -1.01812,-3.02349"
       id="path7171" /><path
       style="fill:#010101;stroke:none;stroke-width:0.264583"
       d="m 103.42889,123.33813 c -1.52241,0.39902 -0.72152,2.73672 0.70644,2.2351 1.29884,-0.45623 0.62336,-2.58358 -0.70644,-2.2351"
       id="path7169" /><path
       style="fill:#010101;stroke:none;stroke-width:0.264583"
       d="m 90.785251,122.84654 c -1.1602,0.75834 -0.0355,2.56458 1.1549,1.83104 1.2409,-0.76477 0.13917,-2.67686 -1.1549,-1.83104"
       id="path7167" /><path
       style="fill:#010101;stroke:none;stroke-width:0.264583"
       d="m 56.155631,122.58195 c -1.30681,0.87379 0.0512,2.94127 1.38866,2.09667 1.34218,-0.8476 -0.0376,-3.00006 -1.38866,-2.09667"
       id="path7165" /><path
       style="fill:#010101;stroke:none;stroke-width:0.264583"
       d="m 83.596521,122.05564 c -1.72535,0.95801 -0.31353,3.92975 1.50918,2.89042 1.719,-0.9802 0.2921,-3.89054 -1.50918,-2.89042"
       id="path7163" /><path
       style="fill:#010101;stroke:none;stroke-width:0.264583"
       d="m 68.031081,122.05164 c -1.51844,1.00002 0.10583,3.55555 1.72879,2.62972 1.82668,-1.04214 -0.0405,-3.74165 -1.72879,-2.62972"
       id="path7161" /><path
       style="fill:#010101;stroke:none;stroke-width:0.264583"
       d="m 51.052611,121.99144 c -1.37795,0.48552 -0.66971,2.83599 0.74046,2.49966 1.66399,-0.39685 0.87641,-3.06933 -0.74046,-2.49966"
       id="path7159" /><path
       style="fill:#010101;stroke:none;stroke-width:0.264583"
       d="m 88.849031,121.25037 0.26458,0.26459 -0.26458,-0.26459"
       id="path7157" /><path
       style="fill:#010101;stroke:none;stroke-width:0.264583"
       d="m 64.038781,121.52353 c -1.58115,0.93837 -0.0458,3.23519 1.46632,2.36125 1.58777,-0.91771 0.072,-3.27401 -1.46632,-2.36125"
       id="path7155" /><path
       style="fill:#010101;stroke:none;stroke-width:0.264583"
       d="m 96.537291,121.21098 c -1.70418,0.50837 -0.95726,3.30943 0.76306,2.77466 1.68936,-0.52518 0.98398,-3.29581 -0.76306,-2.77466"
       id="path7153" /><path
       style="fill:#010101;stroke:none;stroke-width:0.264583"
       d="m 60.549991,120.94639 c -1.89434,0.55042 -1.18155,3.33465 0.75379,2.82999 1.74652,-0.45548 1.02579,-3.34701 -0.75379,-2.82999"
       id="path7151" /><path
       style="fill:#010101;stroke:none;stroke-width:0.264583"
       d="m 47.613031,121.00479 c -1.58835,0.82825 -0.36307,3.25061 1.24452,2.35082 1.4742,-0.82516 0.22246,-3.11581 -1.24452,-2.35082"
       id="path7149" /><path
       style="fill:#010101;stroke:none;stroke-width:0.264583"
       d="m 72.219431,120.72875 c -1.65364,0.96805 -0.14419,3.54631 1.50919,2.62686 1.74942,-0.97282 0.32358,-3.69972 -1.50919,-2.62686"
       id="path7147" /><path
       style="fill:#010101;stroke:none;stroke-width:0.264583"
       d="m 106.90128,120.46416 c -1.56448,0.9501 -0.086,3.3346 1.48775,2.54254 1.76689,-0.88929 0.28999,-3.62206 -1.48775,-2.54254"
       id="path7145" /><path
       style="fill:#010101;stroke:none;stroke-width:0.264583"
       d="m 100.02185,120.12793 c -1.619779,0.69924 -0.424649,3.51049 1.2237,2.65094 1.57692,-0.8224 0.49239,-3.39196 -1.2237,-2.65094"
       id="path7143" /><path
       style="fill:#010101;stroke:none;stroke-width:0.264583"
       d="m 78.823701,120.12493 c -1.91638,0.78547 -0.61039,3.55712 1.26524,2.81652 1.91928,-0.75785 0.64135,-3.59799 -1.26524,-2.81652"
       id="path7141" /><path
       style="fill:#010101;stroke:none;stroke-width:0.264583"
       d="m 43.104681,119.86321 c -1.76358,0.70064 -0.78393,3.39947 1.01444,2.76648 1.83677,-0.64646 0.89496,-3.52502 -1.01444,-2.76648"
       id="path7139" /><path
       style="fill:#010101;stroke:none;stroke-width:0.264583"
       d="m 91.798601,119.14214 c -1.66687,0.95366 -0.14764,3.49784 1.48775,2.39964 1.53221,-1.02894 0.0942,-3.30462 -1.48775,-2.39964"
       id="path7137" /><path
       style="fill:#010101;stroke:none;stroke-width:0.264583"
       d="m 50.863751,118.61194 c -1.44449,0.98372 0.19164,3.20567 1.63282,2.32227 1.66693,-1.02174 -0.11012,-3.3592 -1.63282,-2.32227"
       id="path7135" /><path
       style="fill:#010101;stroke:none;stroke-width:0.264583"
       d="m 87.290371,118.02255 c -1.52242,0.5125 -0.70962,2.76633 0.75035,2.44169 1.67799,-0.37307 0.85937,-2.98363 -0.75035,-2.44169"
       id="path7133" /><path
       style="fill:#010101;stroke:none;stroke-width:0.264583"
       d="m 83.112331,118.08275 c -1.338,0.8849 0.0331,3.07229 1.44304,2.31471 1.67508,-0.90011 0.15504,-3.37156 -1.44304,-2.31471"
       id="path7131" /><path
       style="fill:#010101;stroke:none;stroke-width:0.264583"
       d="m 55.521951,118.02255 c -1.65081,0.18834 -1.3317,2.64496 0.25395,2.5989 1.80628,-0.0525 1.47132,-2.79572 -0.25395,-2.5989"
       id="path7129" /><path
       style="fill:#010101;stroke:none;stroke-width:0.264583"
       d="m 68.775881,117.5136 c -1.67957,0.70181 -0.74771,3.36452 1.0078,2.77159 1.82986,-0.61801 0.82233,-3.53623 -1.0078,-2.77159"
       id="path7127" /><path
       style="fill:#010101;stroke:none;stroke-width:0.264583"
       d="m 103.94165,116.98547 c -1.88992,0.26667 -1.32715,3.16727 0.50721,2.8422 1.84388,-0.32673 1.2909,-3.09594 -0.50721,-2.8422"
       id="path7125" /><path
       style="fill:#010101;stroke:none;stroke-width:0.264583"
       d="m 59.276341,117.02527 c -1.56496,0.93811 -0.065,3.38476 1.48769,2.57847 1.73726,-0.9021 0.24871,-3.61939 -1.48769,-2.57847"
       id="path7123" /><path
       style="fill:#010101;stroke:none;stroke-width:0.264583"
       d="m 95.756771,116.70904 c -1.81716,0.60666 -0.81624,3.45657 1.00092,2.78895 1.7772,-0.65289 0.79613,-3.38892 -1.00092,-2.78895"
       id="path7121" /><path
       style="fill:#010101;stroke:none;stroke-width:0.264583"
       d="m 64.271621,116.69584 c -1.78594,0.64399 -0.78449,3.44715 1.01414,2.8022 1.82854,-0.65559 0.81042,-3.46022 -1.01414,-2.8022"
       id="path7119" /><path
       style="fill:#010101;stroke:none;stroke-width:0.264583"
       d="m 47.084041,116.24221 c -1.45724,0.76724 -0.11681,2.89139 1.19963,2.0852 1.24933,-0.76506 0.13925,-2.79013 -1.19963,-2.0852"
       id="path7117" /><path
       style="fill:#010101;stroke:none;stroke-width:0.264583"
       d="m 73.013181,115.7024 c -1.96558,1.1325 0.21749,3.76772 1.99338,2.55337 1.61448,-1.10403 -0.40667,-3.46753 -1.99338,-2.55337"
       id="path7115" /><path
       style="fill:#010101;stroke:none;stroke-width:0.264583"
       d="m 79.892351,115.44089 c -1.47108,0.82666 -0.25506,2.9891 1.22343,2.26081 1.56263,-0.76964 0.32915,-3.13317 -1.22343,-2.26081"
       id="path7113" /><path
       style="fill:#010101;stroke:none;stroke-width:0.264583"
       d="m 90.762231,114.91276 c -1.22396,0.70085 -0.34475,2.67906 0.95911,2.06806 1.40177,-0.65683 0.45112,-2.87544 -0.95911,-2.06806"
       id="path7111" /><path
       style="fill:#010101;stroke:none;stroke-width:0.264583"
       d="m 99.989041,114.33173 c -1.40732,0.43828 -1.01811,2.77029 0.490279,2.4284 1.53035,-0.34684 1.13294,-2.93394 -0.490279,-2.4284"
       id="path7109" /><path
       style="fill:#010101;stroke:none;stroke-width:0.264583"
       d="m 52.375711,114.37973 c -1.71802,0.98002 -0.26958,3.65524 1.50913,2.6289 1.68781,-0.97391 0.18966,-3.59791 -1.50913,-2.6289"
       id="path7107" /><path
       style="fill:#010101;stroke:none;stroke-width:0.264583"
       d="m 69.859351,114.0435 c -1.42266,0.59581 -0.42439,2.73454 0.95912,2.26917 1.49172,-0.50192 0.57229,-2.91052 -0.95912,-2.26917"
       id="path7105" /><path
       style="fill:#010101;stroke:none;stroke-width:0.264583"
       d="m 85.953961,112.9917 c -1.8341,0.64556 -0.79561,3.46705 1.01414,2.8022 1.78091,-0.65426 0.79825,-3.44016 -1.01414,-2.8022"
       id="path7103" /><path
       style="fill:#010101;stroke:none;stroke-width:0.264583"
       d="m 61.871851,113.0262 c -1.73435,0.15441 -1.46818,2.85406 0.2532,2.72666 1.76398,-0.13054 1.53141,-2.88554 -0.2532,-2.72666"
       id="path7101" /><path
       style="fill:#010101;stroke:none;stroke-width:0.264583"
       d="m 57.109641,112.9852 c -1.92958,0.31009 -1.42666,3.43347 0.50794,3.09457 1.90426,-0.33361 1.46505,-3.41164 -0.50794,-3.09457"
       id="path7099" /><path
       style="fill:#010101;stroke:none;stroke-width:0.264583"
       d="m 81.261311,112.79616 c -1.10543,0.69453 0.0897,2.23224 1.12183,1.56257 1.10331,-0.71569 -0.0646,-2.22699 -1.12183,-1.56257"
       id="path7097" /><path
       style="fill:#010101;stroke:none;stroke-width:0.264583"
       d="m 77.479621,112.80656 c -1.73514,0.33901 -1.33139,2.92015 0.49371,2.52722 1.53802,-0.3311 1.05833,-2.83049 -0.49371,-2.52722"
       id="path7095" /><path
       style="fill:#010101;stroke:none;stroke-width:0.264583"
       d="m 94.963551,112.00241 c -1.89283,0.98046 -0.28999,3.73724 1.48457,2.62583 1.51845,-0.95102 0.0968,-3.44506 -1.48457,-2.62583"
       id="path7093" /><path
       style="fill:#010101;stroke:none;stroke-width:0.264583"
       d="m 66.373731,111.95051 c -1.80922,0.53359 -1.152,3.3269 0.75089,2.82998 1.74519,-0.45574 1.02446,-3.35356 -0.75089,-2.82998"
       id="path7091" /><path
       style="fill:#010101;stroke:none;stroke-width:0.264583"
       d="m 73.517751,111.17798 c -1.70948,0.46321 -0.95806,3.28872 0.75062,2.71669 1.63089,-0.54602 0.95753,-3.17955 -0.75062,-2.71669"
       id="path7089" /><path
       style="fill:#010101;stroke:none;stroke-width:0.264583"
       d="m 97.660451,110.18418 c -0.88371,0.43442 -0.2794,1.73752 0.63341,1.36599 0.90434,-0.36812 0.23071,-1.79075 -0.63341,-1.36599"
       id="path7087" /><path
       style="fill:#010101;stroke:none;stroke-width:0.264583"
       d="m 89.462331,110.14638 c -1.35228,0.87309 0.0455,2.98651 1.41923,2.09952 1.35228,-0.87307 -0.0455,-2.98652 -1.41923,-2.09952"
       id="path7085" /><path
       style="fill:#010101;stroke:none;stroke-width:0.264583"
       d="m 76.739311,109.36691 c -1.26868,0.65675 -0.36168,2.45957 0.93769,1.92905 1.34752,-0.55017 0.30321,-2.57128 -0.93769,-1.92905"
       id="path7083" /><path
       style="fill:#010101;stroke:none;stroke-width:0.264583"
       d="m 82.052941,109.10213 c -0.78846,0.47645 -0.26458,1.9165 0.63791,1.49705 0.93689,-0.43532 0.36036,-2.10024 -0.63791,-1.49705"
       id="path7081" /><path
       style="fill:#010101;stroke:none;stroke-width:0.264583"
       d="m 60.553961,109.04003 c -1.70596,0.50888 -0.95163,3.24768 0.76305,2.76138 1.70471,-0.48342 0.97817,-3.28081 -0.76305,-2.76138"
       id="path7079" /><path
       style="fill:#010101;stroke:none;stroke-width:0.264583"
       d="m 69.594771,108.74789 c -1.75234,0.77927 -0.18177,3.2482 1.46685,2.51517 1.75233,-0.77927 0.18177,-3.24822 -1.46685,-2.51517"
       id="path7077" /><path
       style="fill:#010101;stroke:none;stroke-width:0.264583"
       d="m 55.836331,108.75189 c -1.4818,0.61813 -0.5388,2.94712 0.96954,2.48373 1.7318,-0.53205 0.67754,-3.17079 -0.96954,-2.48373"
       id="path7075" /><path
       style="fill:#010101;stroke:none;stroke-width:0.264583"
       d="m 86.242091,106.97433 c -1.54173,0.86139 -0.37016,3.45447 1.24486,2.6154 1.58459,-0.82322 0.46038,-3.56811 -1.24486,-2.6154"
       id="path7073" /></g></svg>
