<?xml version="1.0" encoding="UTF-8" standalone="no"?>
<svg
   version="1.1"
   viewBox="0 0 500.25003 513.60004"
   id="svg320"
   sodipodi:docname="logo_trasnparent.svg"
   width="500.25003"
   height="513.60004"
   inkscape:version="1.1.2 (0a00cf5339, 2022-02-04)"
   inkscape:export-filename="/home/arpagon/Workspace/SemanticParceros/Branding/logo/logo_trasnparent.png"
   inkscape:export-xdpi="300"
   inkscape:export-ydpi="300"
   xmlns:inkscape="http://www.inkscape.org/namespaces/inkscape"
   xmlns:sodipodi="http://sodipodi.sourceforge.net/DTD/sodipodi-0.dtd"
   xmlns="http://www.w3.org/2000/svg"
   xmlns:svg="http://www.w3.org/2000/svg">
  <defs
     id="defs324" />
  <sodipodi:namedview
     id="namedview322"
     pagecolor="#ffffff"
     bordercolor="#666666"
     borderopacity="1.0"
     inkscape:pageshadow="2"
     inkscape:pageopacity="0.0"
     inkscape:pagecheckerboard="0"
     showgrid="false"
     fit-margin-top="5"
     fit-margin-left="5"
     fit-margin-right="5"
     fit-margin-bottom="5"
     lock-margins="true"
     inkscape:zoom="0.42480469"
     inkscape:cx="88.275862"
     inkscape:cy="486.10575"
     inkscape:window-width="1920"
     inkscape:window-height="1016"
     inkscape:window-x="0"
     inkscape:window-y="27"
     inkscape:window-maximized="1"
     inkscape:current-layer="svg320" />
  <g
     stroke-width="2"
     fill="none"
     stroke-linecap="butt"
     id="g12"
     transform="translate(-264.84001,-244.39999)">
    <path
       stroke="#191a37"
       vector-effect="non-scaling-stroke"
       d="m 623.46,454.39 q -0.38,0.95 1.52,0.62 a 1,0.97 -33.5 0 1 0.7,0.13 c 2.4,1.49 0.26,4.43 0.61,6.61"
       id="path2" />
    <path
       stroke="#191a37"
       vector-effect="non-scaling-stroke"
       d="m 608.5,525.96 q 3.79,0.95 6.24,5.08 1.24,2.09 -0.61,3.22 a 0.51,0.5 -37.5 0 0 -0.11,0.78 q 0.19,0.21 0.48,0.25"
       id="path4" />
    <path
       stroke="#0c2d49"
       vector-effect="non-scaling-stroke"
       d="m 531.38,649.79 q 0,-2.28 -1.75,-3.03 a 1.01,1.01 0 0 1 -0.48,-0.42 l -2.59,-4.54 a 1.05,1.03 85.1 0 0 -0.5,-0.43 q -2.5,-1.01 -4.78,-0.06 c -2.73,1.14 -4.94,0.02 -7.72,0.3 -5.89,0.6 -10.78,-0.89 -16.29,1.54 -3.59,1.58 -6.36,1.9 -9.82,2.61 a 1.01,1 83.2 0 0 -0.8,1.02 q 0.32,7.67 0.21,15.02 -0.06,3.92 -3.28,4.48"
       id="path6" />
    <path
       stroke="#6e1a3c"
       vector-effect="non-scaling-stroke"
       d="m 654.25,513.29 q 1.06,2.22 3.25,0.92"
       id="path8" />
    <path
       stroke="#1a526d"
       vector-effect="non-scaling-stroke"
       d="m 534.46,702.25 c -1.1,0.11 -0.45,-2.17 -1.42,-0.87 a 1.02,1.02 0 0 1 -0.85,0.4 c -8.3,-0.37 -16.58,-1.1 -24.87,-0.73 -8.26,0.36 -17.29,0.15 -24.43,2.14 a 1.05,1.01 8.8 0 0 -0.53,0.37 l -1.07,1.44"
       id="path10" />
  </g>
  <circle
     fill="#f57521"
     cx="306.37003"
     cy="13.78"
     r="8.7799997"
     id="circle14" />
  <circle
     fill="#f6841f"
     cx="186.95998"
     cy="14.860017"
     r="9.4700003"
     id="circle16" />
  <circle
     fill="#f57521"
     cx="212.81999"
     cy="23.619995"
     r="8.8900003"
     id="circle18" />
  <circle
     fill="#f79420"
     cx="134.11998"
     cy="23.410004"
     r="8.1099997"
     id="circle20" />
  <circle
     fill="#ee6730"
     cx="281.14999"
     cy="22.420013"
     r="5.5700002"
     id="circle22" />
  <ellipse
     fill="#f6841f"
     cx="113.74338"
     cy="-115.39367"
     transform="rotate(54.6)"
     rx="8.9099998"
     ry="8.6599998"
     id="ellipse24" />
  <ellipse
     fill="#f46d26"
     cx="146.44728"
     cy="-206.41125"
     transform="rotate(60.4)"
     rx="7.0900002"
     ry="6.8400002"
     id="ellipse26" />
  <circle
     fill="#f57521"
     cx="324.97"
     cy="30.279999"
     r="8.0500002"
     id="circle28" />
  <circle
     fill="#f48527"
     cx="368.76999"
     cy="28.279999"
     r="5.5"
     id="circle30" />
  <circle
     fill="#f15c2f"
     cx="232.7"
     cy="37.899994"
     r="8.4799995"
     id="circle32" />
  <circle
     fill="#f57521"
     cx="355.37997"
     cy="42.5"
     r="9.1899996"
     id="circle34" />
  <circle
     fill="#f46d26"
     cx="192.42"
     cy="42.730011"
     r="8.8999996"
     id="circle36" />
  <circle
     fill="#e6513d"
     cx="277.64999"
     cy="43.440002"
     r="6.3800001"
     id="circle38" />
  <circle
     fill="#eb4933"
     cx="254.11"
     cy="46.630005"
     r="8.0600004"
     id="circle40" />
  <circle
     fill="#f15c2f"
     cx="303.56003"
     cy="48.420013"
     r="9.0500002"
     id="circle42" />
  <circle
     fill="#f6841f"
     cx="139.70998"
     cy="48.920013"
     r="9.3100004"
     id="circle44" />
  <circle
     fill="#f46d26"
     cx="166.11"
     cy="48.230011"
     r="8.3599997"
     id="circle46" />
  <circle
     fill="#f15c2f"
     cx="213.11"
     cy="52.580017"
     r="7.6300001"
     id="circle48" />
  <circle
     fill="#f79420"
     cx="115.61"
     cy="55.830017"
     r="9.2799997"
     id="circle50" />
  <circle
     fill="#f46d26"
     cx="381.86002"
     cy="54.860016"
     r="7.6100001"
     id="circle52" />
  <circle
     fill="#eb4933"
     cx="331.13998"
     cy="56.809998"
     r="7.3499999"
     id="circle54" />
  <circle
     fill="#e94137"
     cx="270.36002"
     cy="60.330017"
     r="7.9499998"
     id="circle56" />
  <circle
     fill="#e94137"
     cx="234.14998"
     cy="63.160004"
     r="9.5100002"
     id="circle58" />
  <circle
     fill="#f79420"
     cx="84.919998"
     cy="64.679993"
     r="7.54"
     id="circle60" />
  <circle
     fill="#f15c2f"
     cx="181.55"
     cy="69.27002"
     r="8.9700003"
     id="circle62" />
  <circle
     fill="#f15c2f"
     cx="359.04001"
     cy="69.459991"
     r="8.8900003"
     id="circle64" />
  <circle
     fill="#f46d26"
     cx="154.98"
     cy="70.200012"
     r="8.9499998"
     id="circle66" />
  <path
     fill="#081d38"
     d="m 358.61999,209.99001 q -0.38,0.95 1.52,0.62 a 0.97,1 56.5 0 1 0.7,0.13 c 2.4,1.49 0.26,4.43 0.61,6.61 -7.27,2.9 -13.35,4.27 -18.7,11.34 q -13.88,18.34 -27.54,36.84 a 1,1 0 0 0 0.62,1.58 l 17.69,3.28 q 3.56,0.66 0.16,1.92 -13.59,5.04 -27.75,8.27 a 0.94,0.98 17.2 0 0 -0.47,0.26 c -11.89,11.54 -23.11,23.74 -35.01,35.23 -2.6,2.51 -4.4,5.67 -7.59,7.39 a 0.99,1 74.3 0 0 -0.53,0.94 q 0.59,8.75 1.05,16.74 0.22,3.77 2.68,1.65 0.79,-0.69 0.84,-0.73 38.21,-30.47 76.76,-60.5 3.79,0.95 6.24,5.08 1.24,2.09 -0.61,3.22 a 0.5,0.51 52.5 0 0 -0.11,0.78 q 0.19,0.21 0.48,0.25 -15.55,12.45 -31.23,24.73 -0.43,0.34 -0.24,0.72 a 0.41,0.4 68.8 0 0 0.47,0.21 q 3.64,-0.91 7.33,-1.55 22.91,-3.97 45.79,-8.18 c 6.48,-1.19 12.1,-4.6 17.99,-7.37 5.96,-2.81 12.15,-4.68 18.36,-6.71 1.19,-0.39 2.95,-0.17 1.15,1.36 q -12.55,10.62 -25.68,20.55 -1.41,1.07 0.24,1.73 l 13.09,5.21 q 1.91,0.76 0.13,1.79 l -8.5,4.95 q -1.89,1.1 -4.86,0.01 l -28.69,-10.55 a 0.96,0.99 46.7 0 0 -0.65,-0.01 q -23.89,7.54 -48.42,14.52 c -4.47,1.28 -7.16,3.46 -10.14,6.7 q -13.83,15.05 -27.6,30.17 c -1.77,1.95 -3.45,2.87 -3.28,5.93 q 0.85,15.1 1.62,30.29 0,-2.28 -1.75,-3.03 a 1.01,1.01 0 0 1 -0.48,-0.42 l -2.59,-4.54 a 1.05,1.03 85.1 0 0 -0.5,-0.43 q -2.5,-1.01 -4.78,-0.06 c -2.73,1.14 -4.94,0.02 -7.72,0.3 -5.89,0.6 -10.78,-0.89 -16.29,1.54 -3.59,1.58 -6.36,1.9 -9.82,2.61 a 1.01,1 83.2 0 0 -0.8,1.02 q 0.32,7.67 0.21,15.02 -0.06,3.92 -3.28,4.48 1.41,-29.4 2.28,-39.71 c 0.34,-4.02 0.98,-7.3 -2.01,-10.28 q -17.44,-17.38 -34.48,-34.4 -0.17,-0.16 -0.4,-0.24 -19.79,-6.43 -39.2,-12.4 c -6.32,-1.94 -16.12,-1.8 -21.02,-1.5 q -11.42,0.7 -22.88,1.14 -2.76,0.11 -0.71,-1.74 4.57,-4.11 9.91,-7.16 2.03,-1.16 -0.21,-1.83 -20.85,-6.15 -41.15,-13.9 -2.63,-1 0.14,-1.53 5.13,-0.98 10.83,-1.62 5.16,-0.59 10.08,0.98 42.96,13.67 86.61,24.98 a 1,1 0 0 0 1.22,-1.2 l -5.19,-21.88 a 1.01,1.01 0 0 0 -0.41,-0.6 q -31.9,-21.62 -63.08,-43.09 -2.52,-1.74 -4.86,-3.52 -2.14,-1.63 0.55,-1.79 3.33,-0.2 6.66,-0.26 2.39,-0.05 7.5,3.21 24.59,15.7 49.03,31.07 1.69,1.06 1.2,-0.87 l -11.09,-44.28 a 1.04,1.01 15.9 0 0 -0.29,-0.5 q -28.91,-26.69 -59.17,-54.3 c -5.01,-4.57 -2.45,-6.87 -3.98,-12.17 q -0.84,-2.89 1.56,-1.07 c 4.41,3.33 8.42,7.26 12.24,10.76 27.75,25.45 52.21,48.27 81.1,78.69 q 17.78,18.72 36.15,36.88 1.19,1.17 1.36,-0.49 l 1.9,-18.05 a 1,0.96 29.7 0 0 -0.22,-0.74 q -22.36,-27.63 -46.02,-54.17 -0.1,-0.12 -0.22,-0.19 -13.95,-8.47 -27.89,-16.92 -6.3,-3.81 -12.27,-8.14 -1.99,-1.44 0.47,-1.45 l 13.24,-0.02 q 0.25,0 0.46,0.11 l 14.64,7.5 q 2.11,1.09 1.41,-1.18 l -10.1,-32.54 a 0.97,0.94 51.1 0 1 0.07,-0.76 l 4.2,-7.9 q 1.07,-2.01 1.82,0.13 7.96,22.5 15.53,44.09 c 1.28,3.65 3.62,5.83 6.05,8.65 q 19.51,22.64 39.22,45.13 1.49,1.7 1.75,-0.54 l 3.04,-26.48 a 0.98,0.97 29.8 0 0 -0.2,-0.72 q -22.55,-29.34 -46.43,-58.29 c -5.97,-7.23 -10.56,-12.26 -18.25,-18 q -14.15,-10.57 -28.66,-20.63 -1.51,-1.04 -2.57,-2.07 a 1,1 0 0 1 0.38,-1.67 c 4.53,-1.47 8.01,-0.9 12.39,1.48 q 11.73,6.37 22.52,14.21 a 1,1 0 0 0 1.58,-0.69 q 0.36,-3.18 1.28,-6.24 c 1.47,-4.91 5.35,-18.28 6.23,-18.5 a 0.41,0.41 0 0 1 0.5,0.37 l 2.3,34.57 a 0.99,0.98 22.3 0 0 0.26,0.61 l 49.89,55.51 q 1.42,1.59 1.73,-0.52 2.34,-16.13 3.3,-32.36 0.17,-2.81 -1.75,-4.96 -26.23,-29.46 -54.75,-56.73 a 0.98,0.98 0 0 1 -0.3,-0.54 l -2.12,-11.51 a 0.65,0.65 0 0 1 0.51,-0.75 c 2.26,-0.44 48.59,46.46 54.76,51.51 q 1.69,1.38 3.25,2.92 1.63,1.6 1.7,-0.69 0.67,-22.48 0.55,-45.26 c -0.07,-13.04 1.29,-27.940003 0.88,-41.490003 q -0.1,-3.1 0.9,-5.32 0.11,-0.24 0.09,-0.49 -0.16,-1.86 1.39,-2.87 1.81,-1.18 2.97,-2.19 1.62,-1.42 1.66,0.73 0.14,6.79 0.05,13.22 -0.12,10.25 -0.1,13.97 0.21,31.920003 0.08,63.520003 -0.01,2.14 1.64,0.77 9.77,-8.15 19.28,-16.18 1.15,-0.97 2.02,-1.47 a 1,1.01 74 0 1 1.5,0.83 l 0.5,11.92 a 0.98,0.98 0 0 1 -0.32,0.77 l -21.73,20.21 a 1.03,1.02 70.4 0 0 -0.31,0.66 c -0.25,3.37 0.56,7.12 0.46,10.66 q -0.32,11.48 0.89,22.89 a 1.02,1.1 51.3 0 1 -0.08,0.53 q -0.42,0.9 -0.03,1.5 a 0.64,0.64 0 0 0 1.06,0.01 q 19.97,-29.14 40.38,-57.93 1.46,-2.06 1.95,-4.51 4.43,-22.33 7.35,-44.910003 0.28,-2.17 1.54,-3.68 4.12,-4.87 9.86,-7.84 3.1,-1.61 1.32,1.39 -2.84,4.8 -3.8,10.34 -2.49,14.390003 -4.62,28.830003 -0.42,2.89 1.68,0.87 5.3,-5.07 9.87,-10.79 1.73,-2.16 1.78,0.61 l 0.13,6.28 a 0.96,0.99 62.7 0 1 -0.21,0.63 q -25.12,32.44 -45.75,67.91 -10.84,18.64 -21.79,37.21 a 1.05,1.05 0 0 0 -0.14,0.56 l 1.56,30.01 q 0.12,2.35 1.73,0.64 10.2,-10.86 20.27,-21.84 c 1.45,-1.59 2.81,-3.68 3.7,-5.86 q 19.33,-47.48 39.41,-94.67 1.65,-3.88 1.92,0.33 0.35,5.72 0.13,12.41 -0.1,3 -1.28,5.94 -14.69,36.84 -28.36,74.08 -0.78,2.12 1.31,1.27 21.9,-8.92 43.97,-17.43 c 3.52,-1.36 5.01,-1.64 7.39,-4.78 q 9.23,-12.17 18.38,-24.55 a 1,1 0 0 1 1.67,0.1 l 2.8,4.94 a 1,0.99 50 0 1 -0.09,1.11 q -5.77,7.25 -10.45,16.3 z m -75.52,76.94 c 3.67,-3.52 11.1,-10.06 14.76,-14.89 10.71,-14.12 21.24,-29.62 33.38,-42.49 a 0.61,0.62 61.2 0 0 0.16,-0.54 q -0.09,-0.57 -0.67,-0.32 -28.64,12.35 -39.66,16.95 c -2.79,1.17 -4.31,2.77 -6.09,5.03 q -13.08,16.58 -26.07,33.26 a 1.03,1.02 62.5 0 0 -0.21,0.68 l 1.37,21.05 q 0.13,1.99 1.65,0.69 10.98,-9.42 21.38,-19.42 z m -61.44,60.89 q 1.43,1.03 1.58,-0.73 l 2.49,-29.44 a 1.03,1.04 26.8 0 0 -0.24,-0.74 q -25.49,-29.52 -52.38,-57.78 a 0.81,0.83 65.1 0 0 -0.69,-0.24 q -0.88,0.13 -0.56,1.22 7.42,25.65 19.86,66.02 a 1.03,1.03 0 0 0 0.37,0.52 z"
     id="path68" />
  <circle
     fill="#f46d26"
     cx="403.80002"
     cy="71"
     r="8.7700005"
     id="circle70" />
  <circle
     fill="#eb4933"
     cx="207.2"
     cy="73.630005"
     r="8.7600002"
     id="circle72" />
  <circle
     fill="#e94137"
     cx="289.25003"
     cy="75.110016"
     r="8.3400002"
     id="circle74" />
  <circle
     fill="#eb4933"
     cx="310.81003"
     cy="75.619995"
     r="7.8099999"
     id="circle76" />
  <circle
     fill="#f48527"
     cx="130.50998"
     cy="76.059998"
     r="8.1000004"
     id="circle78" />
  <circle
     fill="#f79420"
     cx="107.96999"
     cy="78.350006"
     r="8.5900002"
     id="circle80" />
  <circle
     fill="#eb4933"
     cx="337.87997"
     cy="81.77002"
     r="8.79"
     id="circle82" />
  <circle
     fill="#f79420"
     cx="62.349991"
     cy="86.800018"
     r="9.0200005"
     id="circle84" />
  <circle
     fill="#e94137"
     cx="264.43002"
     cy="88.640015"
     r="9.3699999"
     id="circle86" />
  <circle
     fill="#f15c2f"
     cx="383.82999"
     cy="88"
     r="8.6899996"
     id="circle88" />
  <circle
     fill="#f46d26"
     cx="423.68002"
     cy="89.369995"
     r="9.0200005"
     id="circle90" />
  <circle
     fill="#e94137"
     cx="228.09999"
     cy="90.970001"
     r="9.1999998"
     id="circle92" />
  <circle
     fill="#f79420"
     cx="87.899979"
     cy="92.52002"
     r="8.25"
     id="circle94" />
  <circle
     fill="#f68031"
     cx="159.58"
     cy="93.410004"
     r="8.8800001"
     id="circle96" />
  <circle
     fill="#eb4933"
     cx="362.98001"
     cy="94.600006"
     r="8.6199999"
     id="circle98" />
  <circle
     fill="#ee6730"
     cx="181.52998"
     cy="95.02002"
     r="8.4099998"
     id="circle100" />
  <circle
     fill="#e94137"
     cx="205.14"
     cy="98.720001"
     r="9.3599997"
     id="circle102" />
  <circle
     fill="#dd8c30"
     cx="106.65999"
     cy="98.170013"
     r="7.7800002"
     id="circle104" />
  <circle
     fill="#e13d39"
     cx="291.87997"
     cy="99.76001"
     r="9.4799995"
     id="circle106" />
  <circle
     fill="#d68038"
     cx="136.93999"
     cy="100.17999"
     r="7.7199998"
     id="circle108" />
  <circle
     fill="#e13d39"
     cx="331.87997"
     cy="100.88"
     r="6.9400001"
     id="circle110" />
  <circle
     fill="#f15c2f"
     cx="401.13998"
     cy="105.10001"
     r="7.1900001"
     id="circle112" />
  <circle
     fill="#db333b"
     cx="225.74998"
     cy="114.64999"
     r="9.3400002"
     id="circle114" />
  <circle
     fill="#f46d26"
     cx="434.60001"
     cy="114.42999"
     r="8.0299997"
     id="circle116" />
  <circle
     fill="#f79420"
     cx="54.679977"
     cy="114.02002"
     r="6.6500001"
     id="circle118" />
  <circle
     fill="#d08340"
     cx="120.58998"
     cy="116.07001"
     r="7.6500001"
     id="circle120" />
  <circle
     fill="#e94137"
     cx="357.93002"
     cy="116.77002"
     r="8.6899996"
     id="circle122" />
  <circle
     fill="#dd8c30"
     cx="78.939987"
     cy="116.55002"
     r="6.9499998"
     id="circle124" />
  <circle
     fill="#d68038"
     cx="164.83998"
     cy="117.81"
     r="8.1999998"
     id="circle126" />
  <circle
     fill="#eb4933"
     cx="380.29001"
     cy="118.02002"
     r="7.9699998"
     id="circle128" />
  <ellipse
     fill="#d38f33"
     cx="107.17387"
     cy="112.95338"
     transform="rotate(3.6)"
     rx="7.8000002"
     ry="7.3800001"
     id="ellipse130" />
  <circle
     fill="#ee6730"
     cx="412.20999"
     cy="121.66"
     r="8.1199999"
     id="circle132" />
  <circle
     fill="#d08340"
     cx="140.83998"
     cy="121.29001"
     r="7.1900001"
     id="circle134" />
  <circle
     fill="#d5213f"
     cx="267.04001"
     cy="122.72"
     r="8.6400003"
     id="circle136" />
  <circle
     fill="#db333b"
     cx="337.30002"
     cy="127.83002"
     r="8.46"
     id="circle138" />
  <ellipse
     fill="#e13d39"
     cx="158.48433"
     cy="-275.68243"
     transform="rotate(84.3)"
     rx="7.8400002"
     ry="7.3899999"
     id="ellipse140" />
  <ellipse
     fill="#f09c2d"
     cx="5.6938953"
     cy="145.65581"
     transform="rotate(-18.8)"
     rx="6.96"
     ry="6.5500002"
     id="ellipse142" />
  <circle
     fill="#bd803c"
     cx="124.73997"
     cy="138.64999"
     r="8.5900002"
     id="circle144" />
  <circle
     fill="#d38f33"
     cx="73.860001"
     cy="138.75"
     r="7.9299998"
     id="circle146" />
  <circle
     fill="#eb4933"
     cx="392.05002"
     cy="138.45001"
     r="7.5500002"
     id="circle148" />
  <ellipse
     fill="#eb4933"
     cx="23.414766"
     cy="-436.32996"
     transform="rotate(105.6)"
     rx="7.9200001"
     ry="7.6199999"
     id="ellipse150" />
  <circle
     fill="#eb4933"
     cx="363.62003"
     cy="140.11002"
     r="8.0500002"
     id="circle152" />
  <circle
     fill="#bd803c"
     cx="98.479996"
     cy="140.28"
     r="7.98"
     id="circle154" />
  <circle
     fill="#f15c2f"
     cx="456.44998"
     cy="139.45999"
     r="7.2399998"
     id="circle156" />
  <circle
     fill="#e6513d"
     cx="435.06998"
     cy="139.59"
     r="6.77"
     id="circle158" />
  <ellipse
     fill="#f09c2d"
     cx="17.319742"
     cy="143.94751"
     transform="rotate(-7.3)"
     rx="6.52"
     ry="6.1999998"
     id="ellipse160" />
  <circle
     fill="#dc593a"
     cx="202.98"
     cy="153.89001"
     r="6.29"
     id="circle162" />
  <circle
     fill="#677358"
     cx="110.12999"
     cy="160.69"
     r="9.0699997"
     id="circle164" />
  <circle
     fill="#975c3c"
     cx="154.33998"
     cy="156.63"
     r="5.1999998"
     id="circle166" />
  <circle
     fill="#717056"
     cx="138.62999"
     cy="160.22"
     r="8.3000002"
     id="circle168" />
  <circle
     fill="#d5213f"
     cx="341.89999"
     cy="161.31"
     r="9"
     id="circle170" />
  <circle
     fill="#e13d39"
     cx="388.43002"
     cy="159.33002"
     r="6.5599999"
     id="circle172" />
  <circle
     fill="#eb4933"
     cx="433.29001"
     cy="160.06"
     r="7.2399998"
     id="circle174" />
  <circle
     fill="#657b51"
     cx="59.839981"
     cy="162.20999"
     r="7.6300001"
     id="circle176" />
  <circle
     fill="#677358"
     cx="83.269974"
     cy="162.94"
     r="8.21"
     id="circle178" />
  <circle
     fill="#eb4933"
     cx="411.87997"
     cy="162.10001"
     r="7.3200002"
     id="circle180" />
  <circle
     fill="#dd283f"
     cx="368.92001"
     cy="164.70999"
     r="7.27"
     id="circle182" />
  <circle
     fill="#eb4933"
     cx="456.44003"
     cy="165.25"
     r="7.4099998"
     id="circle184" />
  <circle
     fill="#657b51"
     cx="37.87999"
     cy="165.38"
     r="5.9699998"
     id="circle186" />
  <ellipse
     fill="#dc593a"
     cx="79.024529"
     cy="268.82553"
     transform="rotate(-35.1)"
     rx="7.0700002"
     ry="6.8099999"
     id="ellipse188" />
  <ellipse
     fill="#e13d39"
     cx="371.77975"
     cy="-252.36546"
     transform="rotate(57.5)"
     rx="7.1199999"
     ry="6.8800001"
     id="ellipse190" />
  <circle
     fill="#57675c"
     cx="124.67"
     cy="181.10001"
     r="7.8099999"
     id="circle192" />
  <circle
     fill="#e94137"
     cx="444.50998"
     cy="184.35001"
     r="9.1099997"
     id="circle194" />
  <ellipse
     fill="#d5213f"
     cx="166.31915"
     cy="-354.078"
     transform="rotate(92.9)"
     rx="8.6099997"
     ry="8.3000002"
     id="ellipse196" />
  <circle
     fill="#dd283f"
     cx="388.94003"
     cy="183.84"
     r="8.5"
     id="circle198" />
  <circle
     fill="#717056"
     cx="149.59999"
     cy="184.09"
     r="8.3100004"
     id="circle200" />
  <circle
     fill="#506f5d"
     cx="79.939987"
     cy="185.12"
     r="8.71"
     id="circle202" />
  <circle
     fill="#477761"
     cx="53.989975"
     cy="186.79001"
     r="7.3600001"
     id="circle204" />
  <circle
     fill="#eb4933"
     cx="466.53"
     cy="190.67999"
     r="7.0900002"
     id="circle206" />
  <path
     fill="#2a1735"
     d="m 389.40999,268.89001 q 1.06,2.22 3.25,0.92 l 5.49,1.58 q 2.3,0.66 0.07,1.52 -1.47,0.56 -2.94,1.2 -2.41,1.05 -4.49,1.54 -14.63,3.46 -29.37,6.48 -0.23,0.04 -0.41,0.18 l -11.35,8.58 q -0.29,-0.04 -0.48,-0.25 a 0.5,0.51 52.5 0 1 0.11,-0.78 q 1.85,-1.13 0.61,-3.22 -2.45,-4.13 -6.24,-5.08 l 9.74,-7.86 a 0.98,0.98 0 0 0 0.31,-0.45 q 7.27,-20.79 14.9,-41.46 3.44,-9.32 7.58,-18.34 1.03,-2.25 -1.27,-1.35 l -13.47,5.25 c -0.35,-2.18 1.79,-5.12 -0.61,-6.61 a 0.97,1 56.5 0 0 -0.7,-0.13 q -1.9,0.33 -1.52,-0.62 30.2,-9.95 60.25,-20.24 3.22,-1.1 5.71,-0.71 3.2,0.5 6.23,2.05 2.31,1.19 -0.2,1.86 -2.58,0.68 -5.71,1.74 -19.04,6.4 -38,13 a 1.01,1.01 0 0 0 -0.62,0.62 q -8.51,24.62 -9.87,29.78 -4.37,16.63 -9.08,33.11 a 1,1 0 0 0 1.18,1.25 q 10.37,-2.32 20.9,-3.56 z"
     id="path208" />
  <circle
     fill="#11566d"
     cx="31.019976"
     cy="200.55002"
     r="7.1799998"
     id="circle210" />
  <circle
     fill="#d5213f"
     cx="331.25003"
     cy="204.94"
     r="9.2399998"
     id="circle212" />
  <circle
     fill="#dd283f"
     cx="429.69998"
     cy="206.81"
     r="6.52"
     id="circle214" />
  <circle
     fill="#218191"
     cx="68.689987"
     cy="208.37"
     r="6.8200002"
     id="circle216" />
  <ellipse
     fill="#1a7e8e"
     cx="-18.818642"
     cy="215.44958"
     transform="rotate(-18)"
     rx="7.5799999"
     ry="7.3200002"
     id="ellipse218" />
  <circle
     fill="#218191"
     cx="89.509995"
     cy="212.24002"
     r="8.3000002"
     id="circle220" />
  <circle
     fill="#e94137"
     cx="451.66"
     cy="214.54001"
     r="9.3699999"
     id="circle222" />
  <circle
     fill="#dd283f"
     cx="406.81003"
     cy="214.58002"
     r="7.1300001"
     id="circle224" />
  <ellipse
     fill="#218191"
     cx="47.537361"
     cy="238.82539"
     transform="rotate(-16.2)"
     rx="7.0999999"
     ry="6.7800002"
     id="ellipse226" />
  <circle
     fill="#e6513d"
     cx="478.81998"
     cy="221.14001"
     r="6.6700001"
     id="circle228" />
  <circle
     fill="#09314d"
     cx="15.689989"
     cy="224.14001"
     r="7.0599999"
     id="circle230" />
  <circle
     fill="#11566d"
     cx="34.039993"
     cy="229.44"
     r="6.1700001"
     id="circle232" />
  <circle
     fill="#218191"
     cx="127.58998"
     cy="231.95999"
     r="8.5900002"
     id="circle234" />
  <circle
     fill="#218191"
     cx="77.959976"
     cy="233.88"
     r="8.6700001"
     id="circle236" />
  <circle
     fill="#d5213f"
     cx="354.01999"
     cy="233.59"
     r="7.52"
     id="circle238" />
  <circle
     fill="#dd283f"
     cx="431.44998"
     cy="235.55002"
     r="9.1999998"
     id="circle240" />
  <ellipse
     fill="#218191"
     cx="93.020172"
     cy="239.87766"
     transform="rotate(-2.2)"
     rx="9.2700005"
     ry="8.9499998"
     id="ellipse242" />
  <circle
     fill="#1a7e8e"
     cx="54.330002"
     cy="236.08002"
     r="8.04"
     id="circle244" />
  <circle
     fill="#dd283f"
     cx="408.05002"
     cy="236.30002"
     r="7.6199999"
     id="circle246" />
  <circle
     fill="#dd283f"
     cx="387.98001"
     cy="236.79001"
     r="7.5700002"
     id="circle248" />
  <circle
     fill="#e94137"
     cx="458.78"
     cy="239.35001"
     r="8.9899998"
     id="circle250" />
  <circle
     fill="#218191"
     cx="146.83"
     cy="241.42001"
     r="6.4200001"
     id="circle252" />
  <circle
     fill="#083753"
     cx="22.509996"
     cy="246.08002"
     r="4.6199999"
     id="circle254" />
  <circle
     fill="#f15c2f"
     cx="484.48001"
     cy="253.39999"
     r="7.4099998"
     id="circle256" />
  <circle
     fill="#0f4e63"
     cx="69.519974"
     cy="254.82001"
     r="8.2399998"
     id="circle258" />
  <circle
     fill="#11566d"
     cx="39.819992"
     cy="255.87"
     r="8.4399996"
     id="circle260" />
  <ellipse
     fill="#d5213f"
     cx="145.37679"
     cy="449.99661"
     transform="rotate(-39.2)"
     rx="8.8000002"
     ry="8.4700003"
     id="ellipse262" />
  <circle
     fill="#d5213f"
     cx="344.35001"
     cy="256.97"
     r="8.3900003"
     id="circle264" />
  <circle
     fill="#dd283f"
     cx="419.25003"
     cy="257.69"
     r="8.3400002"
     id="circle266" />
  <circle
     fill="#dd283f"
     cx="441.07999"
     cy="262.54001"
     r="8.8800001"
     id="circle268" />
  <circle
     fill="#11566d"
     cx="91.769974"
     cy="263.17001"
     r="9.2799997"
     id="circle270" />
  <circle
     fill="#e94137"
     cx="464.09"
     cy="263.30002"
     r="7.79"
     id="circle272" />
  <circle
     fill="#11566d"
     cx="14.17"
     cy="270.09"
     r="9.1700001"
     id="circle274" />
  <path
     fill="#b21c43"
     d="m 389.40999,268.89001 3.25,0.92 q -2.19,1.3 -3.25,-0.92 z"
     id="path276" />
  <circle
     fill="#f15c2f"
     cx="485.84"
     cy="277.06998"
     r="7.8600001"
     id="circle278" />
  <ellipse
     fill="#d5213f"
     cx="466.35941"
     cy="-169.84712"
     transform="rotate(54.3)"
     rx="9.2600002"
     ry="8.9799995"
     id="ellipse280" />
  <circle
     fill="#09314d"
     cx="38.319992"
     cy="280.04001"
     r="9.0699997"
     id="circle282" />
  <circle
     fill="#0f4e63"
     cx="67.039993"
     cy="279.22"
     r="7.8099999"
     id="circle284" />
  <circle
     fill="#11566d"
     cx="108.14"
     cy="281.49002"
     r="7.4299998"
     id="circle286" />
  <circle
     fill="#c82142"
     cx="434.81003"
     cy="285.67001"
     r="9.2799997"
     id="circle288" />
  <circle
     fill="#084459"
     cx="53.919998"
     cy="294.41"
     r="8.0699997"
     id="circle290" />
  <circle
     fill="#c82142"
     cx="458.97"
     cy="295.50003"
     r="8.4399996"
     id="circle292" />
  <circle
     fill="#083753"
     cx="14.969988"
     cy="296.62003"
     r="8.3900003"
     id="circle294" />
  <circle
     fill="#bc2141"
     cx="418.61002"
     cy="302.88004"
     r="7.8899999"
     id="circle296" />
  <circle
     fill="#d83f32"
     cx="488.55002"
     cy="302.47"
     r="6.6999998"
     id="circle298" />
  <circle
     fill="#083753"
     cx="43.509995"
     cy="313.01999"
     r="8.3000002"
     id="circle300" />
  <circle
     fill="#084459"
     cx="85.86998"
     cy="318.48001"
     r="7.21"
     id="circle302" />
  <circle
     fill="#b21c43"
     cx="463.74002"
     cy="321.70999"
     r="9.3599997"
     id="circle304" />
  <circle
     fill="#084459"
     cx="63.809982"
     cy="324.18002"
     r="7.8299999"
     id="circle306" />
  <circle
     fill="#b21c43"
     cx="437.42001"
     cy="324.19003"
     r="8.0299997"
     id="circle308" />
  <circle
     fill="#b21c43"
     cx="486.24002"
     cy="328.59"
     r="8.96"
     id="circle310" />
  <ellipse
     fill="#0f4e63"
     cx="329.16049"
     cy="18.01903"
     transform="rotate(83.7)"
     rx="8.6899996"
     ry="8.3299999"
     id="ellipse312" />
  <circle
     fill="#b21c43"
     cx="409.66"
     cy="330.06998"
     r="9.7600002"
     id="circle314" />
  <path
     fill="#103c59"
     d="m 266.53999,405.39001 3.08,52.46 c -1.1,0.11 -0.45,-2.17 -1.42,-0.87 a 1.02,1.02 0 0 1 -0.85,0.4 c -8.3,-0.37 -16.58,-1.1 -24.87,-0.73 -8.26,0.36 -17.29,0.15 -24.43,2.14 a 1.05,1.01 8.8 0 0 -0.53,0.37 l -1.07,1.44 2.29,-38.72 q 3.22,-0.56 3.28,-4.48 0.11,-7.35 -0.21,-15.02 a 1.01,1 83.2 0 1 0.8,-1.02 c 3.46,-0.71 6.23,-1.03 9.82,-2.61 5.51,-2.43 10.4,-0.94 16.29,-1.54 2.78,-0.28 4.99,0.84 7.72,-0.3 q 2.28,-0.95 4.78,0.06 a 1.05,1.03 85.1 0 1 0.5,0.43 l 2.59,4.54 a 1.01,1.01 0 0 0 0.48,0.42 q 1.75,0.75 1.75,3.03 z"
     id="path316" />
  <path
     fill="#236880"
     d="m 269.61999,457.85001 2.62,49.7 a 1,1 0 0 1 -1,1.05 h -56.69 a 0.99,1 1.9 0 1 -0.99,-1.07 l 2.89,-46.93 1.07,-1.44 a 1.05,1.01 8.8 0 1 0.53,-0.37 c 7.14,-1.99 16.17,-1.78 24.43,-2.14 8.29,-0.37 16.57,0.36 24.87,0.73 a 1.02,1.02 0 0 0 0.85,-0.4 c 0.97,-1.3 0.32,0.98 1.42,0.87 z"
     id="path318" />
</svg>
